<?xml version="1.0" encoding="utf-8"?>
<svg xmlns="http://www.w3.org/2000/svg" xmlns:xlink="http://www.w3.org/1999/xlink" width="600" height="400" viewBox="0 0 2400 1600">
<defs>
  <clipPath id="clip0000">
    <rect x="0" y="0" width="2400" height="1600"/>
  </clipPath>
</defs>
<path clip-path="url(#clip0000)" d="
M0 1600 L2400 1600 L2400 0 L0 0  Z
  " fill="#ffffff" fill-rule="evenodd" fill-opacity="1"/>
<defs>
  <clipPath id="clip0001">
    <rect x="480" y="0" width="1681" height="1600"/>
  </clipPath>
</defs>
<defs>
  <clipPath id="clip0002">
    <rect x="153" y="47" width="2200" height="1441"/>
  </clipPath>
</defs>
<path clip-path="url(#clip0002)" d="
M153.898 1402.4 L153.898 302.48 L958.736 47.2441 L2352.76 132.323 L2352.76 1232.24 L1547.92 1487.47 L153.898 1402.4  Z
  " fill="#ffffff" fill-rule="evenodd" fill-opacity="1"/>
<polyline clip-path="url(#clip0002)" style="stroke:#000000; stroke-width:2; stroke-opacity:0.1; fill:none" points="
  390.68,1416.85 1195.52,1161.61 
  "/>
<polyline clip-path="url(#clip0002)" style="stroke:#000000; stroke-width:2; stroke-opacity:0.1; fill:none" points="
  1195.52,1161.61 1195.52,61.6952 
  "/>
<polyline clip-path="url(#clip0002)" style="stroke:#000000; stroke-width:2; stroke-opacity:0.1; fill:none" points="
  642.81,1432.23 1447.65,1177 
  "/>
<polyline clip-path="url(#clip0002)" style="stroke:#000000; stroke-width:2; stroke-opacity:0.1; fill:none" points="
  1447.65,1177 1447.65,77.083 
  "/>
<polyline clip-path="url(#clip0002)" style="stroke:#000000; stroke-width:2; stroke-opacity:0.1; fill:none" points="
  894.94,1447.62 1699.78,1192.39 
  "/>
<polyline clip-path="url(#clip0002)" style="stroke:#000000; stroke-width:2; stroke-opacity:0.1; fill:none" points="
  1699.78,1192.39 1699.78,92.4708 
  "/>
<polyline clip-path="url(#clip0002)" style="stroke:#000000; stroke-width:2; stroke-opacity:0.1; fill:none" points="
  1147.07,1463.01 1951.91,1207.77 
  "/>
<polyline clip-path="url(#clip0002)" style="stroke:#000000; stroke-width:2; stroke-opacity:0.1; fill:none" points="
  1951.91,1207.77 1951.91,107.859 
  "/>
<polyline clip-path="url(#clip0002)" style="stroke:#000000; stroke-width:2; stroke-opacity:0.1; fill:none" points="
  1399.2,1478.4 2204.04,1223.16 
  "/>
<polyline clip-path="url(#clip0002)" style="stroke:#000000; stroke-width:2; stroke-opacity:0.1; fill:none" points="
  2204.04,1223.16 2204.04,123.246 
  "/>
<polyline clip-path="url(#clip0002)" style="stroke:#000000; stroke-width:2; stroke-opacity:0.1; fill:none" points="
  1702.92,1438.32 308.9,1353.24 
  "/>
<polyline clip-path="url(#clip0002)" style="stroke:#000000; stroke-width:2; stroke-opacity:0.1; fill:none" points="
  308.9,1353.24 308.9,253.325 
  "/>
<polyline clip-path="url(#clip0002)" style="stroke:#000000; stroke-width:2; stroke-opacity:0.1; fill:none" points="
  1880.71,1381.94 486.694,1296.86 
  "/>
<polyline clip-path="url(#clip0002)" style="stroke:#000000; stroke-width:2; stroke-opacity:0.1; fill:none" points="
  486.694,1296.86 486.694,196.941 
  "/>
<polyline clip-path="url(#clip0002)" style="stroke:#000000; stroke-width:2; stroke-opacity:0.1; fill:none" points="
  2058.51,1325.55 664.489,1240.47 
  "/>
<polyline clip-path="url(#clip0002)" style="stroke:#000000; stroke-width:2; stroke-opacity:0.1; fill:none" points="
  664.489,1240.47 664.489,140.558 
  "/>
<polyline clip-path="url(#clip0002)" style="stroke:#000000; stroke-width:2; stroke-opacity:0.1; fill:none" points="
  2236.3,1269.17 842.284,1184.09 
  "/>
<polyline clip-path="url(#clip0002)" style="stroke:#000000; stroke-width:2; stroke-opacity:0.1; fill:none" points="
  842.284,1184.09 842.284,84.1743 
  "/>
<polyline clip-path="url(#clip0002)" style="stroke:#000000; stroke-width:2; stroke-opacity:0.1; fill:none" points="
  153.898,1151.89 958.736,896.654 
  "/>
<polyline clip-path="url(#clip0002)" style="stroke:#000000; stroke-width:2; stroke-opacity:0.1; fill:none" points="
  958.736,896.654 2352.76,981.733 
  "/>
<polyline clip-path="url(#clip0002)" style="stroke:#000000; stroke-width:2; stroke-opacity:0.1; fill:none" points="
  153.898,868.814 958.736,613.577 
  "/>
<polyline clip-path="url(#clip0002)" style="stroke:#000000; stroke-width:2; stroke-opacity:0.1; fill:none" points="
  958.736,613.577 2352.76,698.656 
  "/>
<polyline clip-path="url(#clip0002)" style="stroke:#000000; stroke-width:2; stroke-opacity:0.1; fill:none" points="
  153.898,585.737 958.736,330.501 
  "/>
<polyline clip-path="url(#clip0002)" style="stroke:#000000; stroke-width:2; stroke-opacity:0.1; fill:none" points="
  958.736,330.501 2352.76,415.58 
  "/>
<polyline clip-path="url(#clip0002)" style="stroke:#000000; stroke-width:2; stroke-opacity:0.1; fill:none" points="
  153.898,302.661 958.736,47.4247 
  "/>
<polyline clip-path="url(#clip0002)" style="stroke:#000000; stroke-width:2; stroke-opacity:0.1; fill:none" points="
  958.736,47.4247 2352.76,132.503 
  "/>
<polyline clip-path="url(#clip0000)" style="stroke:#000000; stroke-width:4; stroke-opacity:1; fill:none" points="
  153.898,1402.4 1547.92,1487.47 
  "/>
<polyline clip-path="url(#clip0000)" style="stroke:#000000; stroke-width:4; stroke-opacity:1; fill:none" points="
  1547.92,1487.47 2352.76,1232.24 
  "/>
<polyline clip-path="url(#clip0000)" style="stroke:#000000; stroke-width:4; stroke-opacity:1; fill:none" points="
  153.898,1402.4 153.898,302.48 
  "/>
<polyline clip-path="url(#clip0000)" style="stroke:#000000; stroke-width:4; stroke-opacity:1; fill:none" points="
  390.68,1416.85 400.338,1413.78 
  "/>
<polyline clip-path="url(#clip0000)" style="stroke:#000000; stroke-width:4; stroke-opacity:1; fill:none" points="
  642.81,1432.23 652.468,1429.17 
  "/>
<polyline clip-path="url(#clip0000)" style="stroke:#000000; stroke-width:4; stroke-opacity:1; fill:none" points="
  894.94,1447.62 904.598,1444.56 
  "/>
<polyline clip-path="url(#clip0000)" style="stroke:#000000; stroke-width:4; stroke-opacity:1; fill:none" points="
  1147.07,1463.01 1156.73,1459.95 
  "/>
<polyline clip-path="url(#clip0000)" style="stroke:#000000; stroke-width:4; stroke-opacity:1; fill:none" points="
  1399.2,1478.4 1408.86,1475.34 
  "/>
<polyline clip-path="url(#clip0000)" style="stroke:#000000; stroke-width:4; stroke-opacity:1; fill:none" points="
  1702.92,1438.32 1686.19,1437.3 
  "/>
<polyline clip-path="url(#clip0000)" style="stroke:#000000; stroke-width:4; stroke-opacity:1; fill:none" points="
  1880.71,1381.94 1863.99,1380.91 
  "/>
<polyline clip-path="url(#clip0000)" style="stroke:#000000; stroke-width:4; stroke-opacity:1; fill:none" points="
  2058.51,1325.55 2041.78,1324.53 
  "/>
<polyline clip-path="url(#clip0000)" style="stroke:#000000; stroke-width:4; stroke-opacity:1; fill:none" points="
  2236.3,1269.17 2219.58,1268.15 
  "/>
<polyline clip-path="url(#clip0000)" style="stroke:#000000; stroke-width:4; stroke-opacity:1; fill:none" points="
  153.898,1151.89 163.556,1148.83 
  "/>
<polyline clip-path="url(#clip0000)" style="stroke:#000000; stroke-width:4; stroke-opacity:1; fill:none" points="
  153.898,868.814 163.556,865.751 
  "/>
<polyline clip-path="url(#clip0000)" style="stroke:#000000; stroke-width:4; stroke-opacity:1; fill:none" points="
  153.898,585.737 163.556,582.675 
  "/>
<polyline clip-path="url(#clip0000)" style="stroke:#000000; stroke-width:4; stroke-opacity:1; fill:none" points="
  153.898,302.661 163.556,299.598 
  "/>
<g clip-path="url(#clip0000)">
<text style="fill:#000000; fill-opacity:1; font-family:Arial,Helvetica Neue,Helvetica,sans-serif; font-size:48px; text-anchor:middle;" transform="rotate(0, 366.68, 1470.85)" x="366.68" y="1470.85">0.00</text>
</g>
<g clip-path="url(#clip0000)">
<text style="fill:#000000; fill-opacity:1; font-family:Arial,Helvetica Neue,Helvetica,sans-serif; font-size:48px; text-anchor:middle;" transform="rotate(0, 618.81, 1486.23)" x="618.81" y="1486.23">0.25</text>
</g>
<g clip-path="url(#clip0000)">
<text style="fill:#000000; fill-opacity:1; font-family:Arial,Helvetica Neue,Helvetica,sans-serif; font-size:48px; text-anchor:middle;" transform="rotate(0, 870.94, 1501.62)" x="870.94" y="1501.62">0.50</text>
</g>
<g clip-path="url(#clip0000)">
<text style="fill:#000000; fill-opacity:1; font-family:Arial,Helvetica Neue,Helvetica,sans-serif; font-size:48px; text-anchor:middle;" transform="rotate(0, 1123.07, 1517.01)" x="1123.07" y="1517.01">0.75</text>
</g>
<g clip-path="url(#clip0000)">
<text style="fill:#000000; fill-opacity:1; font-family:Arial,Helvetica Neue,Helvetica,sans-serif; font-size:48px; text-anchor:middle;" transform="rotate(0, 1375.2, 1532.4)" x="1375.2" y="1532.4">1.00</text>
</g>
<g clip-path="url(#clip0000)">
<text style="fill:#000000; fill-opacity:1; font-family:Arial,Helvetica Neue,Helvetica,sans-serif; font-size:48px; text-anchor:middle;" transform="rotate(0, 1726.92, 1492.32)" x="1726.92" y="1492.32">0.2</text>
</g>
<g clip-path="url(#clip0000)">
<text style="fill:#000000; fill-opacity:1; font-family:Arial,Helvetica Neue,Helvetica,sans-serif; font-size:48px; text-anchor:middle;" transform="rotate(0, 1904.71, 1435.94)" x="1904.71" y="1435.94">0.4</text>
</g>
<g clip-path="url(#clip0000)">
<text style="fill:#000000; fill-opacity:1; font-family:Arial,Helvetica Neue,Helvetica,sans-serif; font-size:48px; text-anchor:middle;" transform="rotate(0, 2082.51, 1379.55)" x="2082.51" y="1379.55">0.6</text>
</g>
<g clip-path="url(#clip0000)">
<text style="fill:#000000; fill-opacity:1; font-family:Arial,Helvetica Neue,Helvetica,sans-serif; font-size:48px; text-anchor:middle;" transform="rotate(0, 2260.3, 1323.17)" x="2260.3" y="1323.17">0.8</text>
</g>
<g clip-path="url(#clip0000)">
<text style="fill:#000000; fill-opacity:1; font-family:Arial,Helvetica Neue,Helvetica,sans-serif; font-size:48px; text-anchor:end;" transform="rotate(0, 129.898, 1169.39)" x="129.898" y="1169.39">0.2</text>
</g>
<g clip-path="url(#clip0000)">
<text style="fill:#000000; fill-opacity:1; font-family:Arial,Helvetica Neue,Helvetica,sans-serif; font-size:48px; text-anchor:end;" transform="rotate(0, 129.898, 886.314)" x="129.898" y="886.314">0.4</text>
</g>
<g clip-path="url(#clip0000)">
<text style="fill:#000000; fill-opacity:1; font-family:Arial,Helvetica Neue,Helvetica,sans-serif; font-size:48px; text-anchor:end;" transform="rotate(0, 129.898, 603.237)" x="129.898" y="603.237">0.6</text>
</g>
<g clip-path="url(#clip0000)">
<text style="fill:#000000; fill-opacity:1; font-family:Arial,Helvetica Neue,Helvetica,sans-serif; font-size:48px; text-anchor:end;" transform="rotate(0, 129.898, 320.161)" x="129.898" y="320.161">0.8</text>
</g>
<circle clip-path="url(#clip0002)" cx="558.838" cy="608.896" r="14" fill="#000000" fill-rule="evenodd" fill-opacity="1" stroke="none"/>
<circle clip-path="url(#clip0002)" cx="1236.15" cy="1085.84" r="14" fill="#000000" fill-rule="evenodd" fill-opacity="1" stroke="none"/>
<circle clip-path="url(#clip0002)" cx="1252.06" cy="537.984" r="14" fill="#000000" fill-rule="evenodd" fill-opacity="1" stroke="none"/>
<circle clip-path="url(#clip0002)" cx="1217.41" cy="1268.54" r="14" fill="#000000" fill-rule="evenodd" fill-opacity="1" stroke="none"/>
<circle clip-path="url(#clip0002)" cx="1034.53" cy="1164.44" r="14" fill="#000000" fill-rule="evenodd" fill-opacity="1" stroke="none"/>
<circle clip-path="url(#clip0002)" cx="1419.92" cy="351.141" r="14" fill="#000000" fill-rule="evenodd" fill-opacity="1" stroke="none"/>
<circle clip-path="url(#clip0002)" cx="1391.83" cy="113.42" r="14" fill="#000000" fill-rule="evenodd" fill-opacity="1" stroke="none"/>
<circle clip-path="url(#clip0002)" cx="1398.82" cy="1214.65" r="14" fill="#000000" fill-rule="evenodd" fill-opacity="1" stroke="none"/>
<circle clip-path="url(#clip0002)" cx="1250.53" cy="631.278" r="14" fill="#000000" fill-rule="evenodd" fill-opacity="1" stroke="none"/>
<circle clip-path="url(#clip0002)" cx="1206.01" cy="1404.06" r="14" fill="#000000" fill-rule="evenodd" fill-opacity="1" stroke="none"/>
</svg>
