<?xml version="1.0" encoding="utf-8"?>
<svg xmlns="http://www.w3.org/2000/svg" xmlns:xlink="http://www.w3.org/1999/xlink" width="600" height="400" viewBox="0 0 2400 1600">
<defs>
  <clipPath id="clip1500">
    <rect x="0" y="0" width="2400" height="1600"/>
  </clipPath>
</defs>
<polygon clip-path="url(#clip1500)" points="
0,1600 2400,1600 2400,0 0,0 
  " fill="#ffffff" fill-rule="evenodd" fill-opacity="1"/>
<defs>
  <clipPath id="clip1501">
    <rect x="480" y="0" width="1681" height="1600"/>
  </clipPath>
</defs>
<polygon clip-path="url(#clip1500)" points="
552.487,1503.47 1956.93,1503.47 1956.93,47.2441 552.487,47.2441 
  " fill="#ffffff" fill-rule="evenodd" fill-opacity="1"/>
<defs>
  <clipPath id="clip1502">
    <rect x="552" y="47" width="1405" height="1457"/>
  </clipPath>
</defs>
<polyline clip-path="url(#clip1500)" style="stroke:#cccccc; stroke-width:2; stroke-opacity:0.1; fill:none" points="
  626.595,1424.61 1140.66,1166.54 
  "/>
<polyline clip-path="url(#clip1500)" style="stroke:#cccccc; stroke-width:2; stroke-opacity:0.1; fill:none" points="
  1140.66,1166.54 1140.66,54.404 
  "/>
<polyline clip-path="url(#clip1500)" style="stroke:#ededed; stroke-width:2; stroke-opacity:0.1; fill:none" points="
  717.005,1433.35 1231.07,1175.27 
  "/>
<polyline clip-path="url(#clip1500)" style="stroke:#ededed; stroke-width:2; stroke-opacity:0.1; fill:none" points="
  1231.07,1175.27 1231.07,63.1389 
  "/>
<polyline clip-path="url(#clip1500)" style="stroke:#cccccc; stroke-width:2; stroke-opacity:0.1; fill:none" points="
  807.414,1442.08 1321.48,1184.01 
  "/>
<polyline clip-path="url(#clip1500)" style="stroke:#cccccc; stroke-width:2; stroke-opacity:0.1; fill:none" points="
  1321.48,1184.01 1321.48,71.8738 
  "/>
<polyline clip-path="url(#clip1500)" style="stroke:#ededed; stroke-width:2; stroke-opacity:0.1; fill:none" points="
  897.823,1450.82 1411.88,1192.74 
  "/>
<polyline clip-path="url(#clip1500)" style="stroke:#ededed; stroke-width:2; stroke-opacity:0.1; fill:none" points="
  1411.88,1192.74 1411.88,80.6087 
  "/>
<polyline clip-path="url(#clip1500)" style="stroke:#cccccc; stroke-width:2; stroke-opacity:0.1; fill:none" points="
  988.233,1459.55 1502.29,1201.48 
  "/>
<polyline clip-path="url(#clip1500)" style="stroke:#cccccc; stroke-width:2; stroke-opacity:0.1; fill:none" points="
  1502.29,1201.48 1502.29,89.3436 
  "/>
<polyline clip-path="url(#clip1500)" style="stroke:#ededed; stroke-width:2; stroke-opacity:0.1; fill:none" points="
  1078.64,1468.29 1592.7,1210.21 
  "/>
<polyline clip-path="url(#clip1500)" style="stroke:#ededed; stroke-width:2; stroke-opacity:0.1; fill:none" points="
  1592.7,1210.21 1592.7,98.0785 
  "/>
<polyline clip-path="url(#clip1500)" style="stroke:#cccccc; stroke-width:2; stroke-opacity:0.1; fill:none" points="
  1169.05,1477.02 1683.11,1218.95 
  "/>
<polyline clip-path="url(#clip1500)" style="stroke:#cccccc; stroke-width:2; stroke-opacity:0.1; fill:none" points="
  1683.11,1218.95 1683.11,106.813 
  "/>
<polyline clip-path="url(#clip1500)" style="stroke:#ededed; stroke-width:2; stroke-opacity:0.1; fill:none" points="
  1259.46,1485.75 1773.52,1227.68 
  "/>
<polyline clip-path="url(#clip1500)" style="stroke:#ededed; stroke-width:2; stroke-opacity:0.1; fill:none" points="
  1773.52,1227.68 1773.52,115.548 
  "/>
<polyline clip-path="url(#clip1500)" style="stroke:#cccccc; stroke-width:2; stroke-opacity:0.1; fill:none" points="
  1349.87,1494.49 1863.93,1236.42 
  "/>
<polyline clip-path="url(#clip1500)" style="stroke:#cccccc; stroke-width:2; stroke-opacity:0.1; fill:none" points="
  1863.93,1236.42 1863.93,124.283 
  "/>
<polyline clip-path="url(#clip1500)" style="stroke:#ededed; stroke-width:2; stroke-opacity:0.1; fill:none" points="
  1440.28,1503.22 1954.34,1245.15 
  "/>
<polyline clip-path="url(#clip1500)" style="stroke:#ededed; stroke-width:2; stroke-opacity:0.1; fill:none" points="
  1954.34,1245.15 1954.34,133.018 
  "/>
<polyline clip-path="url(#clip1500)" style="stroke:#cccccc; stroke-width:2; stroke-opacity:0.1; fill:none" points="
  559.751,1413.8 1450.13,1499.83 
  "/>
<polyline clip-path="url(#clip1500)" style="stroke:#cccccc; stroke-width:2; stroke-opacity:0.1; fill:none" points="
  559.751,1413.8 559.751,301.669 
  "/>
<polyline clip-path="url(#clip1500)" style="stroke:#ededed; stroke-width:2; stroke-opacity:0.1; fill:none" points="
  685.605,1350.62 1575.99,1436.65 
  "/>
<polyline clip-path="url(#clip1500)" style="stroke:#ededed; stroke-width:2; stroke-opacity:0.1; fill:none" points="
  685.605,1350.62 685.605,238.487 
  "/>
<polyline clip-path="url(#clip1500)" style="stroke:#cccccc; stroke-width:2; stroke-opacity:0.1; fill:none" points="
  811.459,1287.44 1701.84,1373.46 
  "/>
<polyline clip-path="url(#clip1500)" style="stroke:#cccccc; stroke-width:2; stroke-opacity:0.1; fill:none" points="
  811.459,1287.44 811.459,175.306 
  "/>
<polyline clip-path="url(#clip1500)" style="stroke:#ededed; stroke-width:2; stroke-opacity:0.1; fill:none" points="
  937.312,1224.26 1827.69,1310.28 
  "/>
<polyline clip-path="url(#clip1500)" style="stroke:#ededed; stroke-width:2; stroke-opacity:0.1; fill:none" points="
  937.312,1224.26 937.312,112.124 
  "/>
<polyline clip-path="url(#clip1500)" style="stroke:#cccccc; stroke-width:2; stroke-opacity:0.1; fill:none" points="
  1063.17,1161.08 1953.55,1247.1 
  "/>
<polyline clip-path="url(#clip1500)" style="stroke:#cccccc; stroke-width:2; stroke-opacity:0.1; fill:none" points="
  1063.17,1161.08 1063.17,48.9421 
  "/>
<polyline clip-path="url(#clip1500)" style="stroke:#ededed; stroke-width:2; stroke-opacity:0.1; fill:none" points="
  552.487,1306.24 1066.55,1048.17 
  "/>
<polyline clip-path="url(#clip1500)" style="stroke:#ededed; stroke-width:2; stroke-opacity:0.1; fill:none" points="
  1066.55,1048.17 1956.93,1134.19 
  "/>
<polyline clip-path="url(#clip1500)" style="stroke:#cccccc; stroke-width:2; stroke-opacity:0.1; fill:none" points="
  552.487,1195.02 1066.55,936.952 
  "/>
<polyline clip-path="url(#clip1500)" style="stroke:#cccccc; stroke-width:2; stroke-opacity:0.1; fill:none" points="
  1066.55,936.952 1956.93,1022.98 
  "/>
<polyline clip-path="url(#clip1500)" style="stroke:#ededed; stroke-width:2; stroke-opacity:0.1; fill:none" points="
  552.487,1083.81 1066.55,825.739 
  "/>
<polyline clip-path="url(#clip1500)" style="stroke:#ededed; stroke-width:2; stroke-opacity:0.1; fill:none" points="
  1066.55,825.739 1956.93,911.762 
  "/>
<polyline clip-path="url(#clip1500)" style="stroke:#cccccc; stroke-width:2; stroke-opacity:0.1; fill:none" points="
  552.487,972.597 1066.55,714.525 
  "/>
<polyline clip-path="url(#clip1500)" style="stroke:#cccccc; stroke-width:2; stroke-opacity:0.1; fill:none" points="
  1066.55,714.525 1956.93,800.549 
  "/>
<polyline clip-path="url(#clip1500)" style="stroke:#ededed; stroke-width:2; stroke-opacity:0.1; fill:none" points="
  552.487,861.383 1066.55,603.312 
  "/>
<polyline clip-path="url(#clip1500)" style="stroke:#ededed; stroke-width:2; stroke-opacity:0.1; fill:none" points="
  1066.55,603.312 1956.93,689.335 
  "/>
<polyline clip-path="url(#clip1500)" style="stroke:#cccccc; stroke-width:2; stroke-opacity:0.1; fill:none" points="
  552.487,750.17 1066.55,492.098 
  "/>
<polyline clip-path="url(#clip1500)" style="stroke:#cccccc; stroke-width:2; stroke-opacity:0.1; fill:none" points="
  1066.55,492.098 1956.93,578.122 
  "/>
<polyline clip-path="url(#clip1500)" style="stroke:#ededed; stroke-width:2; stroke-opacity:0.1; fill:none" points="
  552.487,638.956 1066.55,380.885 
  "/>
<polyline clip-path="url(#clip1500)" style="stroke:#ededed; stroke-width:2; stroke-opacity:0.1; fill:none" points="
  1066.55,380.885 1956.93,466.908 
  "/>
<polyline clip-path="url(#clip1500)" style="stroke:#cccccc; stroke-width:2; stroke-opacity:0.1; fill:none" points="
  552.487,527.743 1066.55,269.671 
  "/>
<polyline clip-path="url(#clip1500)" style="stroke:#cccccc; stroke-width:2; stroke-opacity:0.1; fill:none" points="
  1066.55,269.671 1956.93,355.695 
  "/>
<polyline clip-path="url(#clip1500)" style="stroke:#ededed; stroke-width:2; stroke-opacity:0.1; fill:none" points="
  552.487,416.529 1066.55,158.458 
  "/>
<polyline clip-path="url(#clip1500)" style="stroke:#ededed; stroke-width:2; stroke-opacity:0.1; fill:none" points="
  1066.55,158.458 1956.93,244.482 
  "/>
<polyline clip-path="url(#clip1500)" style="stroke:#cccccc; stroke-width:2; stroke-opacity:0.1; fill:none" points="
  552.487,305.316 1066.55,47.2441 
  "/>
<polyline clip-path="url(#clip1500)" style="stroke:#cccccc; stroke-width:2; stroke-opacity:0.1; fill:none" points="
  1066.55,47.2441 1956.93,133.268 
  "/>
<polyline clip-path="url(#clip1500)" style="stroke:#000000; stroke-width:4; stroke-opacity:1; fill:none" points="
  489.847,1207.19 485.903,1210.81 483.275,1217.07 481.96,1225.96 481.96,1230.89 483.275,1238.46 485.903,1242.08 489.847,1241.75 492.476,1240.43 496.419,1236.8 
  499.048,1230.54 500.362,1221.66 500.362,1216.72 499.048,1209.15 496.419,1205.53 492.476,1205.87 489.847,1207.19 
  "/>
<polyline clip-path="url(#clip1500)" style="stroke:#000000; stroke-width:4; stroke-opacity:1; fill:none" points="
  510.878,1227.9 509.563,1230.2 510.878,1231.19 512.192,1228.88 510.878,1227.9 
  "/>
<polyline clip-path="url(#clip1500)" style="stroke:#000000; stroke-width:4; stroke-opacity:1; fill:none" points="
  522.708,1198.92 522.708,1197.27 524.022,1193.32 525.337,1191.01 527.965,1188.05 533.223,1185.41 535.852,1185.74 537.166,1186.72 538.481,1189.35 538.481,1192.64 
  537.166,1196.6 534.538,1202.85 521.393,1225.91 539.795,1216.67 
  "/>
<polyline clip-path="url(#clip1500)" style="stroke:#000000; stroke-width:4; stroke-opacity:1; fill:none" points="
  489.847,984.759 485.903,988.384 483.275,994.641 481.96,1003.53 481.96,1008.47 483.275,1016.04 485.903,1019.65 489.847,1019.32 492.476,1018 496.419,1014.37 
  499.048,1008.12 500.362,999.228 500.362,994.291 499.048,986.723 496.419,983.105 492.476,983.439 489.847,984.759 
  "/>
<polyline clip-path="url(#clip1500)" style="stroke:#000000; stroke-width:4; stroke-opacity:1; fill:none" points="
  510.878,1005.47 509.563,1007.77 510.878,1008.76 512.192,1006.46 510.878,1005.47 
  "/>
<polyline clip-path="url(#clip1500)" style="stroke:#000000; stroke-width:4; stroke-opacity:1; fill:none" points="
  534.538,962.323 521.393,991.962 541.11,982.064 
  "/>
<polyline clip-path="url(#clip1500)" style="stroke:#000000; stroke-width:4; stroke-opacity:1; fill:none" points="
  534.538,962.323 534.538,996.883 
  "/>
<polyline clip-path="url(#clip1500)" style="stroke:#000000; stroke-width:4; stroke-opacity:1; fill:none" points="
  489.847,762.332 485.903,765.957 483.275,772.214 481.96,781.103 481.96,786.04 483.275,793.608 485.903,797.226 489.847,796.892 492.476,795.572 496.419,791.947 
  499.048,785.69 500.362,776.801 500.362,771.864 499.048,764.296 496.419,760.678 492.476,761.012 489.847,762.332 
  "/>
<polyline clip-path="url(#clip1500)" style="stroke:#000000; stroke-width:4; stroke-opacity:1; fill:none" points="
  510.878,783.042 509.563,785.348 510.878,786.334 512.192,784.028 510.878,783.042 
  "/>
<polyline clip-path="url(#clip1500)" style="stroke:#000000; stroke-width:4; stroke-opacity:1; fill:none" points="
  538.481,742.853 537.166,740.222 533.223,740.556 530.594,741.876 526.651,745.501 524.022,751.758 522.708,760.646 522.708,768.875 524.022,774.798 526.651,776.77 
  530.594,776.436 531.909,775.776 535.852,772.15 538.481,767.539 539.795,761.942 539.795,760.296 538.481,756.019 535.852,754.047 531.909,754.381 530.594,755.041 
  526.651,758.667 524.022,763.278 522.708,768.875 
  "/>
<polyline clip-path="url(#clip1500)" style="stroke:#000000; stroke-width:4; stroke-opacity:1; fill:none" points="
  489.847,539.905 485.903,543.53 483.275,549.787 481.96,558.676 481.96,563.613 483.275,571.181 485.903,574.799 489.847,574.465 492.476,573.145 496.419,569.52 
  499.048,563.263 500.362,554.374 500.362,549.437 499.048,541.869 496.419,538.251 492.476,538.585 489.847,539.905 
  "/>
<polyline clip-path="url(#clip1500)" style="stroke:#000000; stroke-width:4; stroke-opacity:1; fill:none" points="
  510.878,560.615 509.563,562.921 510.878,563.907 512.192,561.601 510.878,560.615 
  "/>
<polyline clip-path="url(#clip1500)" style="stroke:#000000; stroke-width:4; stroke-opacity:1; fill:none" points="
  527.965,520.768 524.022,524.394 522.708,528.345 522.708,531.636 524.022,534.268 526.651,534.594 531.909,533.6 535.852,533.266 538.481,535.238 539.795,537.869 
  539.795,542.807 538.481,546.758 537.166,549.063 533.223,552.689 527.965,555.328 524.022,555.662 522.708,554.676 521.393,552.045 521.393,547.108 522.708,543.156 
  525.337,538.545 529.28,534.92 534.538,530.635 537.166,527.669 538.481,523.718 538.481,520.426 537.166,517.795 533.223,518.129 527.965,520.768 
  "/>
<polyline clip-path="url(#clip1500)" style="stroke:#000000; stroke-width:4; stroke-opacity:1; fill:none" points="
  485.903,326.04 488.532,323.075 492.476,316.158 492.476,350.718 
  "/>
<polyline clip-path="url(#clip1500)" style="stroke:#000000; stroke-width:4; stroke-opacity:1; fill:none" points="
  510.878,338.188 509.563,340.494 510.878,341.48 512.192,339.174 510.878,338.188 
  "/>
<polyline clip-path="url(#clip1500)" style="stroke:#000000; stroke-width:4; stroke-opacity:1; fill:none" points="
  529.28,297.682 525.337,301.307 522.708,307.564 521.393,316.452 521.393,321.389 522.708,328.958 525.337,332.575 529.28,332.242 531.909,330.922 535.852,327.296 
  538.481,321.039 539.795,312.151 539.795,307.214 538.481,299.645 535.852,296.028 531.909,296.362 529.28,297.682 
  "/>
<polyline clip-path="url(#clip1500)" style="stroke:#000000; stroke-width:4; stroke-opacity:1; fill:none" points="
  552.487,1417.45 552.487,1417.45 542.572,1422.43 552.487,1417.45 552.487,1306.24 547.529,1308.73 552.487,1306.24 552.487,1195.02 542.572,1200 552.487,1195.02 
  552.487,1083.81 547.529,1086.3 552.487,1083.81 552.487,972.597 542.572,977.575 552.487,972.597 552.487,861.383 547.529,863.872 552.487,861.383 552.487,750.17 
  542.572,755.148 552.487,750.17 552.487,638.956 547.529,641.445 552.487,638.956 552.487,527.743 542.572,532.721 552.487,527.743 552.487,416.529 547.529,419.018 
  552.487,416.529 552.487,305.316 542.572,310.294 552.487,305.316 
  "/>
<polyline clip-path="url(#clip1500)" style="stroke:#000000; stroke-width:4; stroke-opacity:1; fill:none" points="
  671.922,1446.39 667.031,1447.56 663.77,1452.18 662.139,1460.25 662.139,1465.19 663.77,1473.58 667.031,1478.83 671.922,1480.95 675.183,1481.26 680.075,1480.09 
  683.336,1475.47 684.966,1467.4 684.966,1462.46 683.336,1454.07 680.075,1448.82 675.183,1446.7 671.922,1446.39 
  "/>
<polyline clip-path="url(#clip1500)" style="stroke:#000000; stroke-width:4; stroke-opacity:1; fill:none" points="
  698.01,1480.18 696.38,1481.66 698.01,1483.47 699.641,1481.98 698.01,1480.18 
  "/>
<polyline clip-path="url(#clip1500)" style="stroke:#000000; stroke-width:4; stroke-opacity:1; fill:none" points="
  712.685,1458.55 712.685,1456.91 714.315,1453.77 715.946,1452.29 719.207,1450.96 725.729,1451.59 728.99,1453.55 730.62,1455.35 732.251,1458.8 732.251,1462.09 
  730.62,1465.22 727.359,1469.85 711.054,1484.73 733.881,1486.93 
  "/>
<polyline clip-path="url(#clip1500)" style="stroke:#000000; stroke-width:4; stroke-opacity:1; fill:none" points="
  852.741,1463.86 847.85,1465.03 844.589,1469.65 842.958,1477.72 842.958,1482.66 844.589,1491.05 847.85,1496.3 852.741,1498.42 856.002,1498.73 860.893,1497.56 
  864.154,1492.94 865.785,1484.87 865.785,1479.93 864.154,1471.54 860.893,1466.29 856.002,1464.17 852.741,1463.86 
  "/>
<polyline clip-path="url(#clip1500)" style="stroke:#000000; stroke-width:4; stroke-opacity:1; fill:none" points="
  878.829,1497.65 877.198,1499.13 878.829,1500.94 880.459,1499.45 878.829,1497.65 
  "/>
<polyline clip-path="url(#clip1500)" style="stroke:#000000; stroke-width:4; stroke-opacity:1; fill:none" points="
  908.178,1469.21 891.873,1490.68 916.33,1493.04 
  "/>
<polyline clip-path="url(#clip1500)" style="stroke:#000000; stroke-width:4; stroke-opacity:1; fill:none" points="
  908.178,1469.21 908.178,1503.77 
  "/>
<polyline clip-path="url(#clip1500)" style="stroke:#000000; stroke-width:4; stroke-opacity:1; fill:none" points="
  1033.56,1481.33 1028.67,1482.5 1025.41,1487.12 1023.78,1495.19 1023.78,1500.13 1025.41,1508.52 1028.67,1513.77 1033.56,1515.89 1036.82,1516.2 1041.71,1515.03 
  1044.97,1510.41 1046.6,1502.34 1046.6,1497.4 1044.97,1489.01 1041.71,1483.76 1036.82,1481.64 1033.56,1481.33 
  "/>
<polyline clip-path="url(#clip1500)" style="stroke:#000000; stroke-width:4; stroke-opacity:1; fill:none" points="
  1059.65,1515.12 1058.02,1516.6 1059.65,1518.41 1061.28,1516.92 1059.65,1515.12 
  "/>
<polyline clip-path="url(#clip1500)" style="stroke:#000000; stroke-width:4; stroke-opacity:1; fill:none" points="
  1093.89,1492.09 1092.26,1488.64 1087.37,1486.53 1084.11,1486.21 1079.21,1487.38 1075.95,1492.01 1074.32,1500.08 1074.32,1508.31 1075.95,1515.05 1079.21,1518.65 
  1084.11,1520.77 1085.74,1520.93 1090.63,1519.76 1093.89,1516.78 1095.52,1512 1095.52,1510.35 1093.89,1505.26 1090.63,1501.65 1085.74,1499.53 1084.11,1499.38 
  1079.21,1500.55 1075.95,1503.53 1074.32,1508.31 
  "/>
<polyline clip-path="url(#clip1500)" style="stroke:#000000; stroke-width:4; stroke-opacity:1; fill:none" points="
  1214.38,1498.8 1209.49,1499.97 1206.23,1504.59 1204.6,1512.66 1204.6,1517.6 1206.23,1525.99 1209.49,1531.24 1214.38,1533.36 1217.64,1533.67 1222.53,1532.5 
  1225.79,1527.88 1227.42,1519.81 1227.42,1514.87 1225.79,1506.48 1222.53,1501.23 1217.64,1499.11 1214.38,1498.8 
  "/>
<polyline clip-path="url(#clip1500)" style="stroke:#000000; stroke-width:4; stroke-opacity:1; fill:none" points="
  1240.47,1532.59 1238.84,1534.07 1240.47,1535.88 1242.1,1534.39 1240.47,1532.59 
  "/>
<polyline clip-path="url(#clip1500)" style="stroke:#000000; stroke-width:4; stroke-opacity:1; fill:none" points="
  1261.66,1503.37 1256.77,1504.54 1255.14,1507.67 1255.14,1510.96 1256.77,1514.41 1260.03,1516.37 1266.55,1518.65 1271.45,1520.77 1274.71,1524.37 1276.34,1527.82 
  1276.34,1532.76 1274.71,1535.89 1273.08,1537.38 1268.18,1538.56 1261.66,1537.93 1256.77,1535.81 1255.14,1534 1253.51,1530.55 1253.51,1525.62 1255.14,1522.48 
  1258.4,1519.51 1263.29,1518.33 1269.82,1517.32 1273.08,1515.99 1274.71,1512.85 1274.71,1509.56 1273.08,1506.11 1268.18,1504 1261.66,1503.37 
  "/>
<polyline clip-path="url(#clip1500)" style="stroke:#000000; stroke-width:4; stroke-opacity:1; fill:none" points="
  1390.31,1522.38 1393.57,1521.05 1398.46,1516.58 1398.46,1551.14 
  "/>
<polyline clip-path="url(#clip1500)" style="stroke:#000000; stroke-width:4; stroke-opacity:1; fill:none" points="
  1421.29,1550.06 1419.65,1551.54 1421.29,1553.35 1422.92,1551.86 1421.29,1550.06 
  "/>
<polyline clip-path="url(#clip1500)" style="stroke:#000000; stroke-width:4; stroke-opacity:1; fill:none" points="
  1444.11,1520.99 1439.22,1522.17 1435.96,1526.79 1434.33,1534.86 1434.33,1539.8 1435.96,1548.18 1439.22,1553.43 1444.11,1555.55 1447.37,1555.87 1452.26,1554.69 
  1455.53,1550.07 1457.16,1542 1457.16,1537.06 1455.53,1528.68 1452.26,1523.43 1447.37,1521.31 1444.11,1520.99 
  "/>
<polyline clip-path="url(#clip1500)" style="stroke:#000000; stroke-width:4; stroke-opacity:1; fill:none" points="
  552.487,1417.45 626.595,1424.61 621.638,1427.1 626.595,1424.61 717.005,1433.35 707.089,1438.32 717.005,1433.35 807.414,1442.08 802.456,1444.57 807.414,1442.08 
  897.823,1450.82 887.908,1455.79 897.823,1450.82 988.233,1459.55 983.275,1462.04 988.233,1459.55 1078.64,1468.29 1068.73,1473.26 1078.64,1468.29 1169.05,1477.02 
  1164.09,1479.51 1169.05,1477.02 1259.46,1485.75 1249.55,1490.73 1259.46,1485.75 1349.87,1494.49 1344.91,1496.98 1349.87,1494.49 1440.28,1503.22 1430.36,1508.2 
  1440.28,1503.22 1442.87,1503.47 
  "/>
<polyline clip-path="url(#clip1500)" style="stroke:#000000; stroke-width:4; stroke-opacity:1; fill:none" points="
  1494.76,1506.81 1490.81,1510.43 1488.18,1516.69 1486.87,1525.58 1486.87,1530.52 1488.18,1538.08 1490.81,1541.7 1494.76,1541.37 1497.38,1540.05 1501.33,1536.42 
  1503.96,1530.17 1505.27,1521.28 1505.27,1516.34 1503.96,1508.77 1501.33,1505.15 1497.38,1505.49 1494.76,1506.81 
  "/>
<polyline clip-path="url(#clip1500)" style="stroke:#000000; stroke-width:4; stroke-opacity:1; fill:none" points="
  1726.75,1390.34 1722.8,1393.97 1720.17,1400.22 1718.86,1409.11 1718.86,1414.05 1720.17,1421.62 1722.8,1425.24 1726.75,1424.9 1729.38,1423.58 1733.32,1419.96 
  1735.95,1413.7 1737.26,1404.81 1737.26,1399.87 1735.95,1392.31 1733.32,1388.69 1729.38,1389.02 1726.75,1390.34 
  "/>
<polyline clip-path="url(#clip1500)" style="stroke:#000000; stroke-width:4; stroke-opacity:1; fill:none" points="
  1747.78,1411.05 1746.46,1413.36 1747.78,1414.34 1749.09,1412.04 1747.78,1411.05 
  "/>
<polyline clip-path="url(#clip1500)" style="stroke:#000000; stroke-width:4; stroke-opacity:1; fill:none" points="
  1774.07,1366.59 1760.92,1373.19 1759.61,1388.66 1760.92,1386.35 1764.87,1382.73 1768.81,1380.75 1772.75,1380.41 1775.38,1382.38 1776.7,1386.66 1776.7,1389.95 
  1775.38,1395.55 1772.75,1400.16 1768.81,1403.79 1764.87,1405.77 1760.92,1406.1 1759.61,1405.11 1758.29,1402.48 
  "/>
<polyline clip-path="url(#clip1500)" style="stroke:#000000; stroke-width:4; stroke-opacity:1; fill:none" points="
  1974.51,1272.54 1977.14,1269.58 1981.08,1262.66 1981.08,1297.22 
  "/>
<polyline clip-path="url(#clip1500)" style="stroke:#000000; stroke-width:4; stroke-opacity:1; fill:none" points="
  1999.49,1284.69 1998.17,1286.99 1999.49,1287.98 2000.8,1285.68 1999.49,1284.69 
  "/>
<polyline clip-path="url(#clip1500)" style="stroke:#000000; stroke-width:4; stroke-opacity:1; fill:none" points="
  2017.89,1244.18 2013.94,1247.81 2011.32,1254.06 2010,1262.95 2010,1267.89 2011.32,1275.46 2013.94,1279.08 2017.89,1278.74 2020.52,1277.42 2024.46,1273.8 
  2027.09,1267.54 2028.4,1258.65 2028.4,1253.71 2027.09,1246.15 2024.46,1242.53 2020.52,1242.86 2017.89,1244.18 
  "/>
<polyline clip-path="url(#clip1500)" style="stroke:#000000; stroke-width:4; stroke-opacity:1; fill:none" points="
  1442.87,1503.47 1450.13,1499.83 1467.94,1501.55 1450.13,1499.83 1575.99,1436.65 1584.89,1437.51 1575.99,1436.65 1701.84,1373.46 1719.65,1375.19 1701.84,1373.46 
  1827.69,1310.28 1836.6,1311.14 1827.69,1310.28 1953.55,1247.1 1971.35,1248.82 1953.55,1247.1 1956.93,1245.4 
  "/>
<circle clip-path="url(#clip1502)" style="fill:#000000; stroke:none; fill-opacity:1" cx="1318.64" cy="595.765" r="10"/>
<circle clip-path="url(#clip1502)" style="fill:#000000; stroke:none; fill-opacity:1" cx="1318.64" cy="595.765" r="7"/>
<circle clip-path="url(#clip1502)" style="fill:#000000; stroke:none; fill-opacity:1" cx="1462.7" cy="1229.77" r="10"/>
<circle clip-path="url(#clip1502)" style="fill:#000000; stroke:none; fill-opacity:1" cx="1462.7" cy="1229.77" r="7"/>
<circle clip-path="url(#clip1502)" style="fill:#000000; stroke:none; fill-opacity:1" cx="811.99" cy="454.774" r="10"/>
<circle clip-path="url(#clip1502)" style="fill:#000000; stroke:none; fill-opacity:1" cx="811.99" cy="454.774" r="7"/>
<circle clip-path="url(#clip1502)" style="fill:#000000; stroke:none; fill-opacity:1" cx="1024.77" cy="753.247" r="10"/>
<circle clip-path="url(#clip1502)" style="fill:#000000; stroke:none; fill-opacity:1" cx="1024.77" cy="753.247" r="7"/>
<circle clip-path="url(#clip1502)" style="fill:#000000; stroke:none; fill-opacity:1" cx="1719.32" cy="474.933" r="10"/>
<circle clip-path="url(#clip1502)" style="fill:#000000; stroke:none; fill-opacity:1" cx="1719.32" cy="474.933" r="7"/>
<circle clip-path="url(#clip1502)" style="fill:#000000; stroke:none; fill-opacity:1" cx="1551.71" cy="547.71" r="10"/>
<circle clip-path="url(#clip1502)" style="fill:#000000; stroke:none; fill-opacity:1" cx="1551.71" cy="547.71" r="7"/>
<circle clip-path="url(#clip1502)" style="fill:#000000; stroke:none; fill-opacity:1" cx="887.126" cy="1128.21" r="10"/>
<circle clip-path="url(#clip1502)" style="fill:#000000; stroke:none; fill-opacity:1" cx="887.126" cy="1128.21" r="7"/>
<circle clip-path="url(#clip1502)" style="fill:#000000; stroke:none; fill-opacity:1" cx="1094.65" cy="291.083" r="10"/>
<circle clip-path="url(#clip1502)" style="fill:#000000; stroke:none; fill-opacity:1" cx="1094.65" cy="291.083" r="7"/>
<circle clip-path="url(#clip1502)" style="fill:#000000; stroke:none; fill-opacity:1" cx="1180.56" cy="1227.03" r="10"/>
<circle clip-path="url(#clip1502)" style="fill:#000000; stroke:none; fill-opacity:1" cx="1180.56" cy="1227.03" r="7"/>
<circle clip-path="url(#clip1502)" style="fill:#000000; stroke:none; fill-opacity:1" cx="1671.61" cy="691.973" r="10"/>
<circle clip-path="url(#clip1502)" style="fill:#000000; stroke:none; fill-opacity:1" cx="1671.61" cy="691.973" r="7"/>
</svg>
