<?xml version="1.0" encoding="utf-8"?>
<svg xmlns="http://www.w3.org/2000/svg" xmlns:xlink="http://www.w3.org/1999/xlink" width="600" height="400" viewBox="0 0 2400 1600">
<defs>
  <clipPath id="clip4600">
    <rect x="0" y="0" width="2000" height="2000"/>
  </clipPath>
</defs>
<defs>
  <clipPath id="clip4601">
    <rect x="0" y="0" width="2400" height="1600"/>
  </clipPath>
</defs>
<polygon clip-path="url(#clip4601)" points="
0,1600 2400,1600 2400,0 0,0 
  " fill="#ffffff" fill-rule="evenodd" fill-opacity="1"/>
<defs>
  <clipPath id="clip4602">
    <rect x="480" y="0" width="1681" height="1600"/>
  </clipPath>
</defs>
<polygon clip-path="url(#clip4601)" points="
462.992,1466.81 1952.76,1466.81 1952.76,117.442 462.992,117.442 
  " fill="#ffffff" fill-rule="evenodd" fill-opacity="1"/>
<defs>
  <clipPath id="clip4603">
    <rect x="462" y="117" width="1491" height="1350"/>
  </clipPath>
</defs>
<polyline clip-path="url(#clip4601)" style="stroke:#cccccc; stroke-width:2; stroke-opacity:0.1; fill:none" points="
  486.36,1389.07 1031.65,1149.94 
  "/>
<polyline clip-path="url(#clip4601)" style="stroke:#cccccc; stroke-width:2; stroke-opacity:0.1; fill:none" points="
  1031.65,1149.94 1031.65,119.414 
  "/>
<polyline clip-path="url(#clip4601)" style="stroke:#ededed; stroke-width:2; stroke-opacity:0.1; fill:none" points="
  593.792,1398.14 1139.08,1159 
  "/>
<polyline clip-path="url(#clip4601)" style="stroke:#ededed; stroke-width:2; stroke-opacity:0.1; fill:none" points="
  1139.08,1159 1139.08,128.481 
  "/>
<polyline clip-path="url(#clip4601)" style="stroke:#cccccc; stroke-width:2; stroke-opacity:0.1; fill:none" points="
  701.224,1407.21 1246.52,1168.07 
  "/>
<polyline clip-path="url(#clip4601)" style="stroke:#cccccc; stroke-width:2; stroke-opacity:0.1; fill:none" points="
  1246.52,1168.07 1246.52,137.548 
  "/>
<polyline clip-path="url(#clip4601)" style="stroke:#ededed; stroke-width:2; stroke-opacity:0.1; fill:none" points="
  808.655,1416.27 1353.95,1177.14 
  "/>
<polyline clip-path="url(#clip4601)" style="stroke:#ededed; stroke-width:2; stroke-opacity:0.1; fill:none" points="
  1353.95,1177.14 1353.95,146.615 
  "/>
<polyline clip-path="url(#clip4601)" style="stroke:#cccccc; stroke-width:2; stroke-opacity:0.1; fill:none" points="
  916.087,1425.34 1461.38,1186.21 
  "/>
<polyline clip-path="url(#clip4601)" style="stroke:#cccccc; stroke-width:2; stroke-opacity:0.1; fill:none" points="
  1461.38,1186.21 1461.38,155.682 
  "/>
<polyline clip-path="url(#clip4601)" style="stroke:#ededed; stroke-width:2; stroke-opacity:0.1; fill:none" points="
  1023.52,1434.41 1568.81,1195.27 
  "/>
<polyline clip-path="url(#clip4601)" style="stroke:#ededed; stroke-width:2; stroke-opacity:0.1; fill:none" points="
  1568.81,1195.27 1568.81,164.749 
  "/>
<polyline clip-path="url(#clip4601)" style="stroke:#cccccc; stroke-width:2; stroke-opacity:0.1; fill:none" points="
  1130.95,1443.47 1676.24,1204.34 
  "/>
<polyline clip-path="url(#clip4601)" style="stroke:#cccccc; stroke-width:2; stroke-opacity:0.1; fill:none" points="
  1676.24,1204.34 1676.24,173.816 
  "/>
<polyline clip-path="url(#clip4601)" style="stroke:#ededed; stroke-width:2; stroke-opacity:0.1; fill:none" points="
  1238.38,1452.54 1783.67,1213.41 
  "/>
<polyline clip-path="url(#clip4601)" style="stroke:#ededed; stroke-width:2; stroke-opacity:0.1; fill:none" points="
  1783.67,1213.41 1783.67,182.883 
  "/>
<polyline clip-path="url(#clip4601)" style="stroke:#cccccc; stroke-width:2; stroke-opacity:0.1; fill:none" points="
  1345.81,1461.61 1891.1,1222.47 
  "/>
<polyline clip-path="url(#clip4601)" style="stroke:#cccccc; stroke-width:2; stroke-opacity:0.1; fill:none" points="
  1891.1,1222.47 1891.1,191.95 
  "/>
<polyline clip-path="url(#clip4601)" style="stroke:#cccccc; stroke-width:2; stroke-opacity:0.1; fill:none" points="
  470.918,1383.62 1415.39,1463.33 
  "/>
<polyline clip-path="url(#clip4601)" style="stroke:#cccccc; stroke-width:2; stroke-opacity:0.1; fill:none" points="
  470.918,1383.62 470.918,353.1 
  "/>
<polyline clip-path="url(#clip4601)" style="stroke:#ededed; stroke-width:2; stroke-opacity:0.1; fill:none" points="
  539.397,1353.59 1483.87,1433.3 
  "/>
<polyline clip-path="url(#clip4601)" style="stroke:#ededed; stroke-width:2; stroke-opacity:0.1; fill:none" points="
  539.397,1353.59 539.397,323.069 
  "/>
<polyline clip-path="url(#clip4601)" style="stroke:#cccccc; stroke-width:2; stroke-opacity:0.1; fill:none" points="
  607.876,1323.56 1552.35,1403.27 
  "/>
<polyline clip-path="url(#clip4601)" style="stroke:#cccccc; stroke-width:2; stroke-opacity:0.1; fill:none" points="
  607.876,1323.56 607.876,293.038 
  "/>
<polyline clip-path="url(#clip4601)" style="stroke:#ededed; stroke-width:2; stroke-opacity:0.1; fill:none" points="
  676.355,1293.53 1620.83,1373.24 
  "/>
<polyline clip-path="url(#clip4601)" style="stroke:#ededed; stroke-width:2; stroke-opacity:0.1; fill:none" points="
  676.355,1293.53 676.355,263.007 
  "/>
<polyline clip-path="url(#clip4601)" style="stroke:#cccccc; stroke-width:2; stroke-opacity:0.1; fill:none" points="
  744.834,1263.5 1689.31,1343.21 
  "/>
<polyline clip-path="url(#clip4601)" style="stroke:#cccccc; stroke-width:2; stroke-opacity:0.1; fill:none" points="
  744.834,1263.5 744.834,232.976 
  "/>
<polyline clip-path="url(#clip4601)" style="stroke:#ededed; stroke-width:2; stroke-opacity:0.1; fill:none" points="
  813.314,1233.47 1757.79,1313.18 
  "/>
<polyline clip-path="url(#clip4601)" style="stroke:#ededed; stroke-width:2; stroke-opacity:0.1; fill:none" points="
  813.314,1233.47 813.314,202.945 
  "/>
<polyline clip-path="url(#clip4601)" style="stroke:#cccccc; stroke-width:2; stroke-opacity:0.1; fill:none" points="
  881.793,1203.44 1826.27,1283.15 
  "/>
<polyline clip-path="url(#clip4601)" style="stroke:#cccccc; stroke-width:2; stroke-opacity:0.1; fill:none" points="
  881.793,1203.44 881.793,172.913 
  "/>
<polyline clip-path="url(#clip4601)" style="stroke:#ededed; stroke-width:2; stroke-opacity:0.1; fill:none" points="
  950.272,1173.41 1894.74,1253.12 
  "/>
<polyline clip-path="url(#clip4601)" style="stroke:#ededed; stroke-width:2; stroke-opacity:0.1; fill:none" points="
  950.272,1173.41 950.272,142.882 
  "/>
<polyline clip-path="url(#clip4601)" style="stroke:#ededed; stroke-width:2; stroke-opacity:0.1; fill:none" points="
  462.992,1258.28 1008.28,1019.15 
  "/>
<polyline clip-path="url(#clip4601)" style="stroke:#ededed; stroke-width:2; stroke-opacity:0.1; fill:none" points="
  1008.28,1019.15 1952.76,1098.86 
  "/>
<polyline clip-path="url(#clip4601)" style="stroke:#cccccc; stroke-width:2; stroke-opacity:0.1; fill:none" points="
  462.992,1129.47 1008.28,890.334 
  "/>
<polyline clip-path="url(#clip4601)" style="stroke:#cccccc; stroke-width:2; stroke-opacity:0.1; fill:none" points="
  1008.28,890.334 1952.76,970.046 
  "/>
<polyline clip-path="url(#clip4601)" style="stroke:#ededed; stroke-width:2; stroke-opacity:0.1; fill:none" points="
  462.992,1000.65 1008.28,761.519 
  "/>
<polyline clip-path="url(#clip4601)" style="stroke:#ededed; stroke-width:2; stroke-opacity:0.1; fill:none" points="
  1008.28,761.519 1952.76,841.23 
  "/>
<polyline clip-path="url(#clip4601)" style="stroke:#cccccc; stroke-width:2; stroke-opacity:0.1; fill:none" points="
  462.992,871.837 1008.28,632.703 
  "/>
<polyline clip-path="url(#clip4601)" style="stroke:#cccccc; stroke-width:2; stroke-opacity:0.1; fill:none" points="
  1008.28,632.703 1952.76,712.415 
  "/>
<polyline clip-path="url(#clip4601)" style="stroke:#ededed; stroke-width:2; stroke-opacity:0.1; fill:none" points="
  462.992,743.022 1008.28,503.888 
  "/>
<polyline clip-path="url(#clip4601)" style="stroke:#ededed; stroke-width:2; stroke-opacity:0.1; fill:none" points="
  1008.28,503.888 1952.76,583.599 
  "/>
<polyline clip-path="url(#clip4601)" style="stroke:#cccccc; stroke-width:2; stroke-opacity:0.1; fill:none" points="
  462.992,614.206 1008.28,375.073 
  "/>
<polyline clip-path="url(#clip4601)" style="stroke:#cccccc; stroke-width:2; stroke-opacity:0.1; fill:none" points="
  1008.28,375.073 1952.76,454.784 
  "/>
<polyline clip-path="url(#clip4601)" style="stroke:#ededed; stroke-width:2; stroke-opacity:0.1; fill:none" points="
  462.992,485.391 1008.28,246.257 
  "/>
<polyline clip-path="url(#clip4601)" style="stroke:#ededed; stroke-width:2; stroke-opacity:0.1; fill:none" points="
  1008.28,246.257 1952.76,325.969 
  "/>
<polyline clip-path="url(#clip4601)" style="stroke:#cccccc; stroke-width:2; stroke-opacity:0.1; fill:none" points="
  462.992,356.576 1008.28,117.442 
  "/>
<polyline clip-path="url(#clip4601)" style="stroke:#cccccc; stroke-width:2; stroke-opacity:0.1; fill:none" points="
  1008.28,117.442 1952.76,197.153 
  "/>
<polyline clip-path="url(#clip4601)" style="stroke:#000000; stroke-width:4; stroke-opacity:1; fill:none" points="
  393.823,1140.15 389.682,1143.61 386.922,1149.76 385.542,1158.59 385.542,1163.53 386.922,1171.15 389.682,1174.88 393.823,1174.71 396.584,1173.5 400.724,1170.04 
  403.485,1163.89 404.865,1155.05 404.865,1150.12 403.485,1142.49 400.724,1138.77 396.584,1138.94 393.823,1140.15 
  "/>
<polyline clip-path="url(#clip4601)" style="stroke:#000000; stroke-width:4; stroke-opacity:1; fill:none" points="
  415.907,1161.73 414.527,1163.98 415.907,1165.02 417.288,1162.77 415.907,1161.73 
  "/>
<polyline clip-path="url(#clip4601)" style="stroke:#000000; stroke-width:4; stroke-opacity:1; fill:none" points="
  440.752,1119.57 426.949,1148.66 447.653,1139.58 
  "/>
<polyline clip-path="url(#clip4601)" style="stroke:#000000; stroke-width:4; stroke-opacity:1; fill:none" points="
  440.752,1119.57 440.752,1154.13 
  "/>
<polyline clip-path="url(#clip4601)" style="stroke:#000000; stroke-width:4; stroke-opacity:1; fill:none" points="
  393.823,882.517 389.682,885.979 386.922,892.126 385.542,900.96 385.542,905.897 386.922,913.521 389.682,917.247 393.823,917.077 396.584,915.866 400.724,912.405 
  403.485,906.257 404.865,897.423 404.865,892.486 403.485,884.863 400.724,881.136 396.584,881.306 393.823,882.517 
  "/>
<polyline clip-path="url(#clip4601)" style="stroke:#000000; stroke-width:4; stroke-opacity:1; fill:none" points="
  415.907,904.101 414.527,906.352 415.907,907.392 417.288,905.141 415.907,904.101 
  "/>
<polyline clip-path="url(#clip4601)" style="stroke:#000000; stroke-width:4; stroke-opacity:1; fill:none" points="
  444.893,865.058 443.513,862.372 439.372,862.542 436.611,863.753 432.471,867.214 429.71,873.362 428.33,882.196 428.33,890.424 429.71,896.402 432.471,898.483 
  436.611,898.313 437.992,897.707 442.132,894.246 444.893,889.744 446.273,884.201 446.273,882.555 444.893,878.224 442.132,876.143 437.992,876.313 436.611,876.918 
  432.471,880.38 429.71,884.882 428.33,890.424 
  "/>
<polyline clip-path="url(#clip4601)" style="stroke:#000000; stroke-width:4; stroke-opacity:1; fill:none" points="
  393.823,624.886 389.682,628.348 386.922,634.496 385.542,643.329 385.542,648.267 386.922,655.89 389.682,659.616 393.823,659.446 396.584,658.236 400.724,654.774 
  403.485,648.626 404.865,639.792 404.865,634.855 403.485,627.232 400.724,623.505 396.584,623.676 393.823,624.886 
  "/>
<polyline clip-path="url(#clip4601)" style="stroke:#000000; stroke-width:4; stroke-opacity:1; fill:none" points="
  415.907,646.47 414.527,648.721 415.907,649.761 417.288,647.51 415.907,646.47 
  "/>
<polyline clip-path="url(#clip4601)" style="stroke:#000000; stroke-width:4; stroke-opacity:1; fill:none" points="
  433.851,607.332 429.71,610.794 428.33,614.691 428.33,617.982 429.71,620.668 432.471,621.103 437.992,620.328 442.132,620.158 444.893,622.239 446.273,624.925 
  446.273,629.862 444.893,633.759 443.513,636.01 439.372,639.471 433.851,641.892 429.71,642.063 428.33,641.022 426.949,638.336 426.949,633.399 428.33,629.502 
  431.09,625 435.231,621.538 440.752,617.472 443.513,614.615 444.893,610.719 444.893,607.427 443.513,604.741 439.372,604.911 433.851,607.332 
  "/>
<polyline clip-path="url(#clip4601)" style="stroke:#000000; stroke-width:4; stroke-opacity:1; fill:none" points="
  389.682,375.654 392.443,372.798 396.584,366.045 396.584,400.605 
  "/>
<polyline clip-path="url(#clip4601)" style="stroke:#000000; stroke-width:4; stroke-opacity:1; fill:none" points="
  415.907,388.839 414.527,391.09 415.907,392.131 417.288,389.879 415.907,388.839 
  "/>
<polyline clip-path="url(#clip4601)" style="stroke:#000000; stroke-width:4; stroke-opacity:1; fill:none" points="
  435.231,349.096 431.09,352.558 428.33,358.706 426.949,367.54 426.949,372.477 428.33,380.1 431.09,383.826 435.231,383.656 437.992,382.446 442.132,378.984 
  444.893,372.836 446.273,364.002 446.273,359.065 444.893,351.442 442.132,347.715 437.992,347.886 435.231,349.096 
  "/>
<polyline clip-path="url(#clip4601)" style="stroke:#000000; stroke-width:4; stroke-opacity:1; fill:none" points="
  462.992,1387.1 462.992,1387.1 450.952,1392.38 462.992,1387.1 462.992,1258.28 456.972,1260.92 462.992,1258.28 462.992,1129.47 450.952,1134.75 462.992,1129.47 
  462.992,1000.65 456.972,1003.29 462.992,1000.65 462.992,871.837 450.952,877.118 462.992,871.837 462.992,743.022 456.972,745.662 462.992,743.022 462.992,614.206 
  450.952,619.487 462.992,614.206 462.992,485.391 456.972,488.031 462.992,485.391 462.992,356.576 450.952,361.856 462.992,356.576 
  "/>
<polyline clip-path="url(#clip4601)" style="stroke:#000000; stroke-width:4; stroke-opacity:1; fill:none" points="
  463.062,1405 458.159,1406.23 454.891,1410.89 453.257,1418.98 453.257,1423.92 454.891,1432.28 458.159,1437.5 463.062,1439.56 466.33,1439.83 471.232,1438.6 
  474.5,1433.94 476.134,1425.85 476.134,1420.91 474.5,1412.54 471.232,1407.33 466.33,1405.27 463.062,1405 
  "/>
<polyline clip-path="url(#clip4601)" style="stroke:#000000; stroke-width:4; stroke-opacity:1; fill:none" points="
  653.414,1421.06 648.511,1422.29 645.243,1426.95 643.609,1435.05 643.609,1439.98 645.243,1448.35 648.511,1453.56 653.414,1455.62 656.682,1455.9 661.584,1454.67 
  664.852,1450 666.486,1441.91 666.486,1436.98 664.852,1428.61 661.584,1423.4 656.682,1421.34 653.414,1421.06 
  "/>
<polyline clip-path="url(#clip4601)" style="stroke:#000000; stroke-width:4; stroke-opacity:1; fill:none" points="
  679.559,1454.54 677.925,1456.04 679.559,1457.83 681.193,1456.32 679.559,1454.54 
  "/>
<polyline clip-path="url(#clip4601)" style="stroke:#000000; stroke-width:4; stroke-opacity:1; fill:none" points="
  694.266,1432.74 694.266,1431.09 695.9,1427.94 697.534,1426.43 700.802,1425.06 707.338,1425.61 710.606,1427.53 712.24,1429.32 713.874,1432.75 713.874,1436.04 
  712.24,1439.19 708.972,1443.85 692.631,1458.93 715.509,1460.86 
  "/>
<polyline clip-path="url(#clip4601)" style="stroke:#000000; stroke-width:4; stroke-opacity:1; fill:none" points="
  868.277,1439.2 863.375,1440.43 860.107,1445.09 858.473,1453.18 858.473,1458.12 860.107,1466.48 863.375,1471.7 868.277,1473.76 871.545,1474.03 876.447,1472.8 
  879.716,1468.14 881.35,1460.05 881.35,1455.11 879.716,1446.74 876.447,1441.53 871.545,1439.47 868.277,1439.2 
  "/>
<polyline clip-path="url(#clip4601)" style="stroke:#000000; stroke-width:4; stroke-opacity:1; fill:none" points="
  894.422,1472.67 892.788,1474.18 894.422,1475.96 896.056,1474.45 894.422,1472.67 
  "/>
<polyline clip-path="url(#clip4601)" style="stroke:#000000; stroke-width:4; stroke-opacity:1; fill:none" points="
  923.836,1443.88 907.495,1465.55 932.006,1467.61 
  "/>
<polyline clip-path="url(#clip4601)" style="stroke:#000000; stroke-width:4; stroke-opacity:1; fill:none" points="
  923.836,1443.88 923.836,1478.44 
  "/>
<polyline clip-path="url(#clip4601)" style="stroke:#000000; stroke-width:4; stroke-opacity:1; fill:none" points="
  1083.14,1457.33 1078.24,1458.56 1074.97,1463.22 1073.34,1471.31 1073.34,1476.25 1074.97,1484.62 1078.24,1489.83 1083.14,1491.89 1086.41,1492.17 1091.31,1490.93 
  1094.58,1486.27 1096.21,1478.18 1096.21,1473.24 1094.58,1464.88 1091.31,1459.66 1086.41,1457.61 1083.14,1457.33 
  "/>
<polyline clip-path="url(#clip4601)" style="stroke:#000000; stroke-width:4; stroke-opacity:1; fill:none" points="
  1109.29,1490.8 1107.65,1492.31 1109.29,1494.1 1110.92,1492.59 1109.29,1490.8 
  "/>
<polyline clip-path="url(#clip4601)" style="stroke:#000000; stroke-width:4; stroke-opacity:1; fill:none" points="
  1143.6,1467.37 1141.97,1463.94 1137.06,1461.88 1133.8,1461.6 1128.89,1462.84 1125.63,1467.5 1123.99,1475.59 1123.99,1483.82 1125.63,1490.54 1128.89,1494.11 
  1133.8,1496.16 1135.43,1496.3 1140.33,1495.07 1143.6,1492.05 1145.24,1487.26 1145.24,1485.61 1143.6,1480.53 1140.33,1476.97 1135.43,1474.91 1133.8,1474.77 
  1128.89,1476 1125.63,1479.02 1123.99,1483.82 
  "/>
<polyline clip-path="url(#clip4601)" style="stroke:#000000; stroke-width:4; stroke-opacity:1; fill:none" points="
  1298,1475.46 1293.1,1476.7 1289.83,1481.36 1288.2,1489.45 1288.2,1494.38 1289.83,1502.75 1293.1,1507.96 1298,1510.02 1301.27,1510.3 1306.17,1509.07 
  1309.44,1504.41 1311.08,1496.32 1311.08,1491.38 1309.44,1483.01 1306.17,1477.8 1301.27,1475.74 1298,1475.46 
  "/>
<polyline clip-path="url(#clip4601)" style="stroke:#000000; stroke-width:4; stroke-opacity:1; fill:none" points="
  1324.15,1508.94 1322.51,1510.45 1324.15,1512.23 1325.78,1510.72 1324.15,1508.94 
  "/>
<polyline clip-path="url(#clip4601)" style="stroke:#000000; stroke-width:4; stroke-opacity:1; fill:none" points="
  1345.39,1479.46 1340.49,1480.69 1338.86,1483.85 1338.86,1487.14 1340.49,1490.57 1343.76,1492.49 1350.29,1494.69 1355.2,1496.75 1358.46,1500.31 1360.1,1503.74 
  1360.1,1508.68 1358.46,1511.83 1356.83,1513.34 1351.93,1514.57 1345.39,1514.02 1340.49,1511.96 1338.86,1510.18 1337.22,1506.75 1337.22,1501.81 1338.86,1498.66 
  1342.12,1495.64 1347.03,1494.41 1353.56,1493.32 1356.83,1491.95 1358.46,1488.79 1358.46,1485.5 1356.83,1482.07 1351.93,1480.01 1345.39,1479.46 
  "/>
<polyline clip-path="url(#clip4601)" style="stroke:#000000; stroke-width:4; stroke-opacity:1; fill:none" points="
  462.992,1387.1 486.36,1389.07 474.32,1394.35 486.36,1389.07 593.792,1398.14 587.772,1400.78 593.792,1398.14 701.224,1407.21 689.183,1412.49 701.224,1407.21 
  808.655,1416.27 802.635,1418.91 808.655,1416.27 916.087,1425.34 904.046,1430.62 916.087,1425.34 1023.52,1434.41 1017.5,1437.05 1023.52,1434.41 1130.95,1443.47 
  1118.91,1448.75 1130.95,1443.47 1238.38,1452.54 1232.36,1455.18 1238.38,1452.54 1345.81,1461.61 1333.77,1466.89 1345.81,1461.61 1407.46,1466.81 
  "/>
<polyline clip-path="url(#clip4601)" style="stroke:#000000; stroke-width:4; stroke-opacity:1; fill:none" points="
  1438.85,1480.1 1434.71,1483.56 1431.95,1489.71 1430.57,1498.54 1430.57,1503.48 1431.95,1511.1 1434.71,1514.83 1438.85,1514.66 1441.61,1513.45 1445.75,1509.98 
  1448.51,1503.84 1449.89,1495 1449.89,1490.07 1448.51,1482.44 1445.75,1478.72 1441.61,1478.89 1438.85,1480.1 
  "/>
<polyline clip-path="url(#clip4601)" style="stroke:#000000; stroke-width:4; stroke-opacity:1; fill:none" points="
  1460.94,1501.68 1459.56,1503.93 1460.94,1504.97 1462.32,1502.72 1460.94,1501.68 
  "/>
<polyline clip-path="url(#clip4601)" style="stroke:#000000; stroke-width:4; stroke-opacity:1; fill:none" points="
  1473.36,1473.19 1473.36,1471.55 1474.74,1467.65 1476.12,1465.4 1478.88,1462.54 1484.4,1460.12 1487.16,1460.56 1488.54,1461.6 1489.92,1464.28 1489.92,1467.57 
  1488.54,1471.47 1485.78,1477.62 1471.98,1500.13 1491.3,1491.66 
  "/>
<polyline clip-path="url(#clip4601)" style="stroke:#000000; stroke-width:4; stroke-opacity:1; fill:none" points="
  1575.81,1420.03 1571.67,1423.5 1568.91,1429.64 1567.53,1438.48 1567.53,1443.42 1568.91,1451.04 1571.67,1454.76 1575.81,1454.59 1578.57,1453.38 1582.71,1449.92 
  1585.47,1443.77 1586.85,1434.94 1586.85,1430 1585.47,1422.38 1582.71,1418.65 1578.57,1418.82 1575.81,1420.03 
  "/>
<polyline clip-path="url(#clip4601)" style="stroke:#000000; stroke-width:4; stroke-opacity:1; fill:none" points="
  1597.89,1441.62 1596.51,1443.87 1597.89,1444.91 1599.27,1442.66 1597.89,1441.62 
  "/>
<polyline clip-path="url(#clip4601)" style="stroke:#000000; stroke-width:4; stroke-opacity:1; fill:none" points="
  1622.74,1399.45 1608.94,1428.55 1629.64,1419.47 
  "/>
<polyline clip-path="url(#clip4601)" style="stroke:#000000; stroke-width:4; stroke-opacity:1; fill:none" points="
  1622.74,1399.45 1622.74,1434.01 
  "/>
<polyline clip-path="url(#clip4601)" style="stroke:#000000; stroke-width:4; stroke-opacity:1; fill:none" points="
  1712.77,1359.97 1708.63,1363.43 1705.87,1369.58 1704.49,1378.42 1704.49,1383.35 1705.87,1390.98 1708.63,1394.7 1712.77,1394.53 1715.53,1393.32 1719.67,1389.86 
  1722.43,1383.71 1723.81,1374.88 1723.81,1369.94 1722.43,1362.32 1719.67,1358.59 1715.53,1358.76 1712.77,1359.97 
  "/>
<polyline clip-path="url(#clip4601)" style="stroke:#000000; stroke-width:4; stroke-opacity:1; fill:none" points="
  1734.85,1381.56 1733.47,1383.81 1734.85,1384.85 1736.23,1382.6 1734.85,1381.56 
  "/>
<polyline clip-path="url(#clip4601)" style="stroke:#000000; stroke-width:4; stroke-opacity:1; fill:none" points="
  1763.84,1342.51 1762.46,1339.83 1758.32,1340 1755.56,1341.21 1751.42,1344.67 1748.65,1350.82 1747.27,1359.65 1747.27,1367.88 1748.65,1373.86 1751.42,1375.94 
  1755.56,1375.77 1756.94,1375.16 1761.08,1371.7 1763.84,1367.2 1765.22,1361.66 1765.22,1360.01 1763.84,1355.68 1761.08,1353.6 1756.94,1353.77 1755.56,1354.37 
  1751.42,1357.84 1748.65,1362.34 1747.27,1367.88 
  "/>
<polyline clip-path="url(#clip4601)" style="stroke:#000000; stroke-width:4; stroke-opacity:1; fill:none" points="
  1849.73,1299.91 1845.59,1303.37 1842.83,1309.52 1841.44,1318.35 1841.44,1323.29 1842.83,1330.91 1845.59,1334.64 1849.73,1334.47 1852.49,1333.26 1856.63,1329.8 
  1859.39,1323.65 1860.77,1314.82 1860.77,1309.88 1859.39,1302.26 1856.63,1298.53 1852.49,1298.7 1849.73,1299.91 
  "/>
<polyline clip-path="url(#clip4601)" style="stroke:#000000; stroke-width:4; stroke-opacity:1; fill:none" points="
  1871.81,1321.49 1870.43,1323.75 1871.81,1324.79 1873.19,1322.53 1871.81,1321.49 
  "/>
<polyline clip-path="url(#clip4601)" style="stroke:#000000; stroke-width:4; stroke-opacity:1; fill:none" points="
  1889.75,1282.36 1885.61,1285.82 1884.23,1289.72 1884.23,1293.01 1885.61,1295.69 1888.37,1296.13 1893.89,1295.35 1898.04,1295.18 1900.8,1297.26 1902.18,1299.95 
  1902.18,1304.89 1900.8,1308.78 1899.42,1311.03 1895.28,1314.5 1889.75,1316.92 1885.61,1317.09 1884.23,1316.05 1882.85,1313.36 1882.85,1308.42 1884.23,1304.53 
  1886.99,1300.02 1891.13,1296.56 1896.66,1292.5 1899.42,1289.64 1900.8,1285.74 1900.8,1282.45 1899.42,1279.77 1895.28,1279.94 1889.75,1282.36 
  "/>
<polyline clip-path="url(#clip4601)" style="stroke:#000000; stroke-width:4; stroke-opacity:1; fill:none" points="
  1407.46,1466.81 1415.39,1463.33 1434.28,1464.93 1415.39,1463.33 1483.87,1433.3 1493.31,1434.1 1483.87,1433.3 1552.35,1403.27 1571.24,1404.87 1552.35,1403.27 
  1620.83,1373.24 1630.27,1374.04 1620.83,1373.24 1689.31,1343.21 1708.2,1344.8 1689.31,1343.21 1757.79,1313.18 1767.23,1313.98 1757.79,1313.18 1826.27,1283.15 
  1845.15,1284.74 1826.27,1283.15 1894.74,1253.12 1904.19,1253.91 1894.74,1253.12 1952.76,1227.68 
  "/>
<circle clip-path="url(#clip4603)" style="fill:#000000; stroke:none; fill-opacity:1" cx="1600.39" cy="1147.68" r="10"/>
<circle clip-path="url(#clip4603)" style="fill:#000000; stroke:none; fill-opacity:1" cx="1600.39" cy="1147.68" r="7"/>
<circle clip-path="url(#clip4603)" style="fill:#000000; stroke:none; fill-opacity:1" cx="1166.86" cy="355.574" r="10"/>
<circle clip-path="url(#clip4603)" style="fill:#000000; stroke:none; fill-opacity:1" cx="1166.86" cy="355.574" r="7"/>
<circle clip-path="url(#clip4603)" style="fill:#000000; stroke:none; fill-opacity:1" cx="1335.28" cy="508.164" r="10"/>
<circle clip-path="url(#clip4603)" style="fill:#000000; stroke:none; fill-opacity:1" cx="1335.28" cy="508.164" r="7"/>
<circle clip-path="url(#clip4603)" style="fill:#000000; stroke:none; fill-opacity:1" cx="1561.08" cy="821.343" r="10"/>
<circle clip-path="url(#clip4603)" style="fill:#000000; stroke:none; fill-opacity:1" cx="1561.08" cy="821.343" r="7"/>
<circle clip-path="url(#clip4603)" style="fill:#000000; stroke:none; fill-opacity:1" cx="649.844" cy="695.738" r="10"/>
<circle clip-path="url(#clip4603)" style="fill:#000000; stroke:none; fill-opacity:1" cx="649.844" cy="695.738" r="7"/>
<circle clip-path="url(#clip4603)" style="fill:#000000; stroke:none; fill-opacity:1" cx="1400.62" cy="537.774" r="10"/>
<circle clip-path="url(#clip4603)" style="fill:#000000; stroke:none; fill-opacity:1" cx="1400.62" cy="537.774" r="7"/>
<circle clip-path="url(#clip4603)" style="fill:#000000; stroke:none; fill-opacity:1" cx="753.068" cy="724.301" r="10"/>
<circle clip-path="url(#clip4603)" style="fill:#000000; stroke:none; fill-opacity:1" cx="753.068" cy="724.301" r="7"/>
<circle clip-path="url(#clip4603)" style="fill:#000000; stroke:none; fill-opacity:1" cx="1114.06" cy="658.179" r="10"/>
<circle clip-path="url(#clip4603)" style="fill:#000000; stroke:none; fill-opacity:1" cx="1114.06" cy="658.179" r="7"/>
<circle clip-path="url(#clip4603)" style="fill:#000000; stroke:none; fill-opacity:1" cx="1800.56" cy="1180.09" r="10"/>
<circle clip-path="url(#clip4603)" style="fill:#000000; stroke:none; fill-opacity:1" cx="1800.56" cy="1180.09" r="7"/>
<circle clip-path="url(#clip4603)" style="fill:#000000; stroke:none; fill-opacity:1" cx="1586.2" cy="824.98" r="10"/>
<circle clip-path="url(#clip4603)" style="fill:#000000; stroke:none; fill-opacity:1" cx="1586.2" cy="824.98" r="7"/>
</svg>
