<?xml version="1.0" encoding="utf-8"?>
<svg xmlns="http://www.w3.org/2000/svg" xmlns:xlink="http://www.w3.org/1999/xlink" width="600" height="400" viewBox="0 0 2400 1600">
<defs>
  <clipPath id="clip7700">
    <rect x="0" y="0" width="2400" height="1600"/>
  </clipPath>
</defs>
<polygon clip-path="url(#clip7700)" points="
0,1600 2400,1600 2400,0 0,0 
  " fill="#ffffff" fill-rule="evenodd" fill-opacity="1"/>
<defs>
  <clipPath id="clip7701">
    <rect x="480" y="0" width="1681" height="1600"/>
  </clipPath>
</defs>
<polygon clip-path="url(#clip7700)" points="
533.212,1239.03 1973.44,1239.03 1973.44,295.691 533.212,295.691 
  " fill="#ffffff" fill-rule="evenodd" fill-opacity="1"/>
<defs>
  <clipPath id="clip7702">
    <rect x="533" y="295" width="1441" height="944"/>
  </clipPath>
</defs>
<polyline clip-path="url(#clip7700)" style="stroke:#cccccc; stroke-width:2; stroke-opacity:0.1; fill:none" points="
  669.994,1191.65 1197.15,1024.47 
  "/>
<polyline clip-path="url(#clip7700)" style="stroke:#cccccc; stroke-width:2; stroke-opacity:0.1; fill:none" points="
  1197.15,1024.47 1197.15,304.039 
  "/>
<polyline clip-path="url(#clip7700)" style="stroke:#ededed; stroke-width:2; stroke-opacity:0.1; fill:none" points="
  827.064,1201.24 1354.23,1034.06 
  "/>
<polyline clip-path="url(#clip7700)" style="stroke:#ededed; stroke-width:2; stroke-opacity:0.1; fill:none" points="
  1354.23,1034.06 1354.23,313.625 
  "/>
<polyline clip-path="url(#clip7700)" style="stroke:#cccccc; stroke-width:2; stroke-opacity:0.1; fill:none" points="
  984.135,1210.82 1511.3,1043.65 
  "/>
<polyline clip-path="url(#clip7700)" style="stroke:#cccccc; stroke-width:2; stroke-opacity:0.1; fill:none" points="
  1511.3,1043.65 1511.3,323.211 
  "/>
<polyline clip-path="url(#clip7700)" style="stroke:#ededed; stroke-width:2; stroke-opacity:0.1; fill:none" points="
  1141.21,1220.41 1668.37,1053.23 
  "/>
<polyline clip-path="url(#clip7700)" style="stroke:#ededed; stroke-width:2; stroke-opacity:0.1; fill:none" points="
  1668.37,1053.23 1668.37,332.797 
  "/>
<polyline clip-path="url(#clip7700)" style="stroke:#cccccc; stroke-width:2; stroke-opacity:0.1; fill:none" points="
  1298.28,1229.99 1825.44,1062.82 
  "/>
<polyline clip-path="url(#clip7700)" style="stroke:#cccccc; stroke-width:2; stroke-opacity:0.1; fill:none" points="
  1825.44,1062.82 1825.44,342.384 
  "/>
<polyline clip-path="url(#clip7700)" style="stroke:#cccccc; stroke-width:2; stroke-opacity:0.1; fill:none" points="
  547.47,1178.78 1460.54,1234.51 
  "/>
<polyline clip-path="url(#clip7700)" style="stroke:#cccccc; stroke-width:2; stroke-opacity:0.1; fill:none" points="
  547.47,1178.78 547.47,458.347 
  "/>
<polyline clip-path="url(#clip7700)" style="stroke:#ededed; stroke-width:2; stroke-opacity:0.1; fill:none" points="
  602.85,1161.22 1515.92,1216.94 
  "/>
<polyline clip-path="url(#clip7700)" style="stroke:#ededed; stroke-width:2; stroke-opacity:0.1; fill:none" points="
  602.85,1161.22 602.85,440.784 
  "/>
<polyline clip-path="url(#clip7700)" style="stroke:#cccccc; stroke-width:2; stroke-opacity:0.1; fill:none" points="
  658.231,1143.66 1571.3,1199.38 
  "/>
<polyline clip-path="url(#clip7700)" style="stroke:#cccccc; stroke-width:2; stroke-opacity:0.1; fill:none" points="
  658.231,1143.66 658.231,423.221 
  "/>
<polyline clip-path="url(#clip7700)" style="stroke:#ededed; stroke-width:2; stroke-opacity:0.1; fill:none" points="
  713.612,1126.09 1626.68,1181.82 
  "/>
<polyline clip-path="url(#clip7700)" style="stroke:#ededed; stroke-width:2; stroke-opacity:0.1; fill:none" points="
  713.612,1126.09 713.612,405.658 
  "/>
<polyline clip-path="url(#clip7700)" style="stroke:#cccccc; stroke-width:2; stroke-opacity:0.1; fill:none" points="
  768.993,1108.53 1682.06,1164.26 
  "/>
<polyline clip-path="url(#clip7700)" style="stroke:#cccccc; stroke-width:2; stroke-opacity:0.1; fill:none" points="
  768.993,1108.53 768.993,388.096 
  "/>
<polyline clip-path="url(#clip7700)" style="stroke:#ededed; stroke-width:2; stroke-opacity:0.1; fill:none" points="
  824.373,1090.97 1737.44,1146.69 
  "/>
<polyline clip-path="url(#clip7700)" style="stroke:#ededed; stroke-width:2; stroke-opacity:0.1; fill:none" points="
  824.373,1090.97 824.373,370.533 
  "/>
<polyline clip-path="url(#clip7700)" style="stroke:#cccccc; stroke-width:2; stroke-opacity:0.1; fill:none" points="
  879.754,1073.4 1792.82,1129.13 
  "/>
<polyline clip-path="url(#clip7700)" style="stroke:#cccccc; stroke-width:2; stroke-opacity:0.1; fill:none" points="
  879.754,1073.4 879.754,352.97 
  "/>
<polyline clip-path="url(#clip7700)" style="stroke:#ededed; stroke-width:2; stroke-opacity:0.1; fill:none" points="
  935.135,1055.84 1848.2,1111.57 
  "/>
<polyline clip-path="url(#clip7700)" style="stroke:#ededed; stroke-width:2; stroke-opacity:0.1; fill:none" points="
  935.135,1055.84 935.135,335.407 
  "/>
<polyline clip-path="url(#clip7700)" style="stroke:#cccccc; stroke-width:2; stroke-opacity:0.1; fill:none" points="
  990.516,1038.28 1903.59,1094 
  "/>
<polyline clip-path="url(#clip7700)" style="stroke:#cccccc; stroke-width:2; stroke-opacity:0.1; fill:none" points="
  990.516,1038.28 990.516,317.844 
  "/>
<polyline clip-path="url(#clip7700)" style="stroke:#ededed; stroke-width:2; stroke-opacity:0.1; fill:none" points="
  1045.9,1020.72 1958.97,1076.44 
  "/>
<polyline clip-path="url(#clip7700)" style="stroke:#ededed; stroke-width:2; stroke-opacity:0.1; fill:none" points="
  1045.9,1020.72 1045.9,300.282 
  "/>
<polyline clip-path="url(#clip7700)" style="stroke:#ededed; stroke-width:2; stroke-opacity:0.1; fill:none" points="
  533.212,1111.26 1060.37,944.081 
  "/>
<polyline clip-path="url(#clip7700)" style="stroke:#ededed; stroke-width:2; stroke-opacity:0.1; fill:none" points="
  1060.37,944.081 1973.44,999.807 
  "/>
<polyline clip-path="url(#clip7700)" style="stroke:#cccccc; stroke-width:2; stroke-opacity:0.1; fill:none" points="
  533.212,1039.22 1060.37,872.038 
  "/>
<polyline clip-path="url(#clip7700)" style="stroke:#cccccc; stroke-width:2; stroke-opacity:0.1; fill:none" points="
  1060.37,872.038 1973.44,927.764 
  "/>
<polyline clip-path="url(#clip7700)" style="stroke:#ededed; stroke-width:2; stroke-opacity:0.1; fill:none" points="
  533.212,967.172 1060.37,799.995 
  "/>
<polyline clip-path="url(#clip7700)" style="stroke:#ededed; stroke-width:2; stroke-opacity:0.1; fill:none" points="
  1060.37,799.995 1973.44,855.72 
  "/>
<polyline clip-path="url(#clip7700)" style="stroke:#cccccc; stroke-width:2; stroke-opacity:0.1; fill:none" points="
  533.212,895.129 1060.37,727.951 
  "/>
<polyline clip-path="url(#clip7700)" style="stroke:#cccccc; stroke-width:2; stroke-opacity:0.1; fill:none" points="
  1060.37,727.951 1973.44,783.677 
  "/>
<polyline clip-path="url(#clip7700)" style="stroke:#ededed; stroke-width:2; stroke-opacity:0.1; fill:none" points="
  533.212,823.085 1060.37,655.908 
  "/>
<polyline clip-path="url(#clip7700)" style="stroke:#ededed; stroke-width:2; stroke-opacity:0.1; fill:none" points="
  1060.37,655.908 1973.44,711.634 
  "/>
<polyline clip-path="url(#clip7700)" style="stroke:#cccccc; stroke-width:2; stroke-opacity:0.1; fill:none" points="
  533.212,751.042 1060.37,583.864 
  "/>
<polyline clip-path="url(#clip7700)" style="stroke:#cccccc; stroke-width:2; stroke-opacity:0.1; fill:none" points="
  1060.37,583.864 1973.44,639.59 
  "/>
<polyline clip-path="url(#clip7700)" style="stroke:#ededed; stroke-width:2; stroke-opacity:0.1; fill:none" points="
  533.212,678.998 1060.37,511.821 
  "/>
<polyline clip-path="url(#clip7700)" style="stroke:#ededed; stroke-width:2; stroke-opacity:0.1; fill:none" points="
  1060.37,511.821 1973.44,567.547 
  "/>
<polyline clip-path="url(#clip7700)" style="stroke:#cccccc; stroke-width:2; stroke-opacity:0.1; fill:none" points="
  533.212,606.955 1060.37,439.778 
  "/>
<polyline clip-path="url(#clip7700)" style="stroke:#cccccc; stroke-width:2; stroke-opacity:0.1; fill:none" points="
  1060.37,439.778 1973.44,495.503 
  "/>
<polyline clip-path="url(#clip7700)" style="stroke:#ededed; stroke-width:2; stroke-opacity:0.1; fill:none" points="
  533.212,534.912 1060.37,367.734 
  "/>
<polyline clip-path="url(#clip7700)" style="stroke:#ededed; stroke-width:2; stroke-opacity:0.1; fill:none" points="
  1060.37,367.734 1973.44,423.46 
  "/>
<polyline clip-path="url(#clip7700)" style="stroke:#cccccc; stroke-width:2; stroke-opacity:0.1; fill:none" points="
  533.212,462.868 1060.37,295.691 
  "/>
<polyline clip-path="url(#clip7700)" style="stroke:#cccccc; stroke-width:2; stroke-opacity:0.1; fill:none" points="
  1060.37,295.691 1973.44,351.417 
  "/>
<polyline clip-path="url(#clip7700)" style="stroke:#000000; stroke-width:4; stroke-opacity:1; fill:none" points="
  451.885,1044.77 447.399,1047.84 444.408,1053.72 442.913,1062.42 442.913,1067.36 444.408,1075.12 447.399,1079.1 451.885,1079.33 454.875,1078.38 459.361,1075.31 
  462.352,1069.43 463.847,1060.72 463.847,1055.79 462.352,1048.03 459.361,1044.04 454.875,1043.82 451.885,1044.77 
  "/>
<polyline clip-path="url(#clip7700)" style="stroke:#000000; stroke-width:4; stroke-opacity:1; fill:none" points="
  475.81,1068.45 474.315,1070.57 475.81,1071.74 477.305,1069.62 475.81,1068.45 
  "/>
<polyline clip-path="url(#clip7700)" style="stroke:#000000; stroke-width:4; stroke-opacity:1; fill:none" points="
  489.268,1041.14 489.268,1039.5 490.763,1035.73 492.259,1033.61 495.249,1031.02 501.23,1029.12 504.221,1029.82 505.716,1030.99 507.212,1033.8 507.212,1037.1 
  505.716,1040.86 502.726,1046.75 487.773,1067.95 508.707,1061.31 
  "/>
<polyline clip-path="url(#clip7700)" style="stroke:#000000; stroke-width:4; stroke-opacity:1; fill:none" points="
  451.885,900.681 447.399,903.749 444.408,909.635 442.913,918.338 442.913,923.275 444.408,931.029 447.399,935.018 451.885,935.241 454.875,934.292 459.361,931.224 
  462.352,925.338 463.847,916.636 463.847,911.699 462.352,903.944 459.361,899.955 454.875,899.732 451.885,900.681 
  "/>
<polyline clip-path="url(#clip7700)" style="stroke:#000000; stroke-width:4; stroke-opacity:1; fill:none" points="
  475.81,924.362 474.315,926.482 475.81,927.653 477.305,925.534 475.81,924.362 
  "/>
<polyline clip-path="url(#clip7700)" style="stroke:#000000; stroke-width:4; stroke-opacity:1; fill:none" points="
  502.726,884.558 487.773,912.34 510.202,905.227 
  "/>
<polyline clip-path="url(#clip7700)" style="stroke:#000000; stroke-width:4; stroke-opacity:1; fill:none" points="
  502.726,884.558 502.726,919.118 
  "/>
<polyline clip-path="url(#clip7700)" style="stroke:#000000; stroke-width:4; stroke-opacity:1; fill:none" points="
  451.885,756.594 447.399,759.662 444.408,765.548 442.913,774.251 442.913,779.188 444.408,786.942 447.399,790.931 451.885,791.154 454.875,790.206 459.361,787.137 
  462.352,781.252 463.847,772.549 463.847,767.612 462.352,759.857 459.361,755.869 454.875,755.646 451.885,756.594 
  "/>
<polyline clip-path="url(#clip7700)" style="stroke:#000000; stroke-width:4; stroke-opacity:1; fill:none" points="
  475.81,780.275 474.315,782.395 475.81,783.567 477.305,781.447 475.81,780.275 
  "/>
<polyline clip-path="url(#clip7700)" style="stroke:#000000; stroke-width:4; stroke-opacity:1; fill:none" points="
  507.212,743.985 505.716,741.168 501.23,740.945 498.24,741.894 493.754,744.962 490.763,750.847 489.268,759.55 489.268,767.779 490.763,773.887 493.754,776.23 
  498.24,776.454 499.735,775.979 504.221,772.911 507.212,768.671 508.707,763.26 508.707,761.614 507.212,757.151 504.221,754.808 499.735,754.585 498.24,755.059 
  493.754,758.128 490.763,762.367 489.268,767.779 
  "/>
<polyline clip-path="url(#clip7700)" style="stroke:#000000; stroke-width:4; stroke-opacity:1; fill:none" points="
  451.885,612.507 447.399,615.576 444.408,621.461 442.913,630.164 442.913,635.101 444.408,642.855 447.399,646.844 451.885,647.067 454.875,646.119 459.361,643.05 
  462.352,637.165 463.847,628.462 463.847,623.525 462.352,615.771 459.361,611.782 454.875,611.559 451.885,612.507 
  "/>
<polyline clip-path="url(#clip7700)" style="stroke:#000000; stroke-width:4; stroke-opacity:1; fill:none" points="
  475.81,636.188 474.315,638.308 475.81,639.48 477.305,637.36 475.81,636.188 
  "/>
<polyline clip-path="url(#clip7700)" style="stroke:#000000; stroke-width:4; stroke-opacity:1; fill:none" points="
  495.249,598.755 490.763,601.823 489.268,605.589 489.268,608.881 490.763,611.698 493.754,612.395 499.735,612.144 504.221,612.367 507.212,614.71 508.707,617.527 
  508.707,622.464 507.212,626.23 505.716,628.35 501.23,631.418 495.249,633.315 490.763,633.092 489.268,631.921 487.773,629.103 487.773,624.166 489.268,620.401 
  492.259,616.161 496.745,613.092 502.726,609.55 505.716,606.956 507.212,603.19 507.212,599.899 505.716,597.081 501.23,596.858 495.249,598.755 
  "/>
<polyline clip-path="url(#clip7700)" style="stroke:#000000; stroke-width:4; stroke-opacity:1; fill:none" points="
  447.399,476.426 450.389,473.832 454.875,467.472 454.875,502.032 
  "/>
<polyline clip-path="url(#clip7700)" style="stroke:#000000; stroke-width:4; stroke-opacity:1; fill:none" points="
  475.81,492.102 474.315,494.222 475.81,495.393 477.305,493.273 475.81,492.102 
  "/>
<polyline clip-path="url(#clip7700)" style="stroke:#000000; stroke-width:4; stroke-opacity:1; fill:none" points="
  496.745,454.194 492.259,457.262 489.268,463.148 487.773,471.851 487.773,476.788 489.268,484.542 492.259,488.531 496.745,488.754 499.735,487.806 504.221,484.737 
  507.212,478.852 508.707,470.149 508.707,465.212 507.212,457.457 504.221,453.469 499.735,453.246 496.745,454.194 
  "/>
<polyline clip-path="url(#clip7700)" style="stroke:#000000; stroke-width:4; stroke-opacity:1; fill:none" points="
  533.212,1183.3 533.212,1183.3 517.115,1188.41 533.212,1183.3 533.212,1111.26 525.163,1113.81 533.212,1111.26 533.212,1039.22 517.115,1044.32 533.212,1039.22 
  533.212,967.172 525.163,969.724 533.212,967.172 533.212,895.129 517.115,900.233 533.212,895.129 533.212,823.085 525.163,825.638 533.212,823.085 533.212,751.042 
  517.115,756.146 533.212,751.042 533.212,678.998 525.163,681.551 533.212,678.998 533.212,606.955 517.115,612.06 533.212,606.955 533.212,534.912 525.163,537.464 
  533.212,534.912 533.212,462.868 517.115,467.973 533.212,462.868 
  "/>
<polyline clip-path="url(#clip7700)" style="stroke:#000000; stroke-width:4; stroke-opacity:1; fill:none" points="
  641.598,1207.42 636.68,1208.77 633.4,1213.5 631.761,1221.63 631.761,1226.57 633.4,1234.9 636.68,1240.04 641.598,1241.98 644.878,1242.18 649.796,1240.84 
  653.076,1236.1 654.715,1227.97 654.715,1223.03 653.076,1214.71 649.796,1209.57 644.878,1207.62 641.598,1207.42 
  "/>
<polyline clip-path="url(#clip7700)" style="stroke:#000000; stroke-width:4; stroke-opacity:1; fill:none" points="
  931.145,1225.09 926.226,1226.44 922.947,1231.18 921.308,1239.3 921.308,1244.24 922.947,1252.57 926.226,1257.71 931.145,1259.65 934.424,1259.85 939.343,1258.51 
  942.622,1253.77 944.262,1245.64 944.262,1240.71 942.622,1232.38 939.343,1227.24 934.424,1225.29 931.145,1225.09 
  "/>
<polyline clip-path="url(#clip7700)" style="stroke:#000000; stroke-width:4; stroke-opacity:1; fill:none" points="
  957.379,1257.96 955.739,1259.51 957.379,1261.25 959.019,1259.71 957.379,1257.96 
  "/>
<polyline clip-path="url(#clip7700)" style="stroke:#000000; stroke-width:4; stroke-opacity:1; fill:none" points="
  990.171,1228.7 973.775,1227.7 972.135,1242.41 973.775,1240.86 978.694,1239.52 983.613,1239.82 988.531,1241.76 991.811,1245.25 993.45,1250.29 993.45,1253.58 
  991.811,1258.42 988.531,1261.51 983.613,1262.86 978.694,1262.56 973.775,1260.61 972.135,1258.86 970.496,1255.47 
  "/>
<polyline clip-path="url(#clip7700)" style="stroke:#000000; stroke-width:4; stroke-opacity:1; fill:none" points="
  1240.37,1250.55 1243.65,1249.1 1248.57,1244.47 1248.57,1279.03 
  "/>
<polyline clip-path="url(#clip7700)" style="stroke:#000000; stroke-width:4; stroke-opacity:1; fill:none" points="
  1271.52,1277.14 1269.88,1278.68 1271.52,1280.43 1273.16,1278.88 1271.52,1277.14 
  "/>
<polyline clip-path="url(#clip7700)" style="stroke:#000000; stroke-width:4; stroke-opacity:1; fill:none" points="
  1294.47,1247.27 1289.56,1248.61 1286.28,1253.35 1284.64,1261.48 1284.64,1266.42 1286.28,1274.74 1289.56,1279.88 1294.47,1281.83 1297.75,1282.03 1302.67,1280.68 
  1305.95,1275.95 1307.59,1267.82 1307.59,1262.88 1305.95,1254.55 1302.67,1249.41 1297.75,1247.47 1294.47,1247.27 
  "/>
<polyline clip-path="url(#clip7700)" style="stroke:#000000; stroke-width:4; stroke-opacity:1; fill:none" points="
  533.212,1183.3 669.994,1191.65 653.897,1196.75 669.994,1191.65 827.064,1201.24 819.016,1203.79 827.064,1201.24 984.135,1210.82 968.038,1215.93 984.135,1210.82 
  1141.21,1220.41 1133.16,1222.96 1141.21,1220.41 1298.28,1229.99 1282.18,1235.1 1298.28,1229.99 1446.28,1239.03 
  "/>
<polyline clip-path="url(#clip7700)" style="stroke:#000000; stroke-width:4; stroke-opacity:1; fill:none" points="
  1499.39,1242.94 1494.9,1246.01 1491.91,1251.9 1490.42,1260.6 1490.42,1265.54 1491.91,1273.29 1494.9,1277.28 1499.39,1277.5 1502.38,1276.55 1506.87,1273.49 
  1509.86,1267.6 1511.35,1258.9 1511.35,1253.96 1509.86,1246.21 1506.87,1242.22 1502.38,1241.99 1499.39,1242.94 
  "/>
<polyline clip-path="url(#clip7700)" style="stroke:#000000; stroke-width:4; stroke-opacity:1; fill:none" points="
  1587.72,1214.93 1583.24,1218 1580.25,1223.88 1578.75,1232.59 1578.75,1237.52 1580.25,1245.28 1583.24,1249.27 1587.72,1249.49 1590.71,1248.54 1595.2,1245.47 
  1598.19,1239.59 1599.68,1230.88 1599.68,1225.95 1598.19,1218.19 1595.2,1214.2 1590.71,1213.98 1587.72,1214.93 
  "/>
<polyline clip-path="url(#clip7700)" style="stroke:#000000; stroke-width:4; stroke-opacity:1; fill:none" points="
  1611.65,1238.61 1610.15,1240.73 1611.65,1241.9 1613.14,1239.78 1611.65,1238.61 
  "/>
<polyline clip-path="url(#clip7700)" style="stroke:#000000; stroke-width:4; stroke-opacity:1; fill:none" points="
  1625.11,1211.3 1625.11,1209.66 1626.6,1205.89 1628.1,1203.77 1631.09,1201.18 1637.07,1199.28 1640.06,1199.98 1641.55,1201.15 1643.05,1203.97 1643.05,1207.26 
  1641.55,1211.02 1638.56,1216.91 1623.61,1238.11 1644.54,1231.47 
  "/>
<polyline clip-path="url(#clip7700)" style="stroke:#000000; stroke-width:4; stroke-opacity:1; fill:none" points="
  1698.48,1179.8 1694,1182.87 1691.01,1188.76 1689.51,1197.46 1689.51,1202.4 1691.01,1210.15 1694,1214.14 1698.48,1214.36 1701.47,1213.42 1705.96,1210.35 
  1708.95,1204.46 1710.45,1195.76 1710.45,1190.82 1708.95,1183.07 1705.96,1179.08 1701.47,1178.86 1698.48,1179.8 
  "/>
<polyline clip-path="url(#clip7700)" style="stroke:#000000; stroke-width:4; stroke-opacity:1; fill:none" points="
  1722.41,1203.49 1720.91,1205.61 1722.41,1206.78 1723.9,1204.66 1722.41,1203.49 
  "/>
<polyline clip-path="url(#clip7700)" style="stroke:#000000; stroke-width:4; stroke-opacity:1; fill:none" points="
  1749.32,1163.68 1734.37,1191.46 1756.8,1184.35 
  "/>
<polyline clip-path="url(#clip7700)" style="stroke:#000000; stroke-width:4; stroke-opacity:1; fill:none" points="
  1749.32,1163.68 1749.32,1198.24 
  "/>
<polyline clip-path="url(#clip7700)" style="stroke:#000000; stroke-width:4; stroke-opacity:1; fill:none" points="
  1809.25,1144.68 1804.76,1147.75 1801.77,1153.63 1800.27,1162.34 1800.27,1167.27 1801.77,1175.03 1804.76,1179.02 1809.25,1179.24 1812.24,1178.29 1816.72,1175.22 
  1819.71,1169.34 1821.21,1160.63 1821.21,1155.7 1819.71,1147.94 1816.72,1143.95 1812.24,1143.73 1809.25,1144.68 
  "/>
<polyline clip-path="url(#clip7700)" style="stroke:#000000; stroke-width:4; stroke-opacity:1; fill:none" points="
  1833.17,1168.36 1831.68,1170.48 1833.17,1171.65 1834.67,1169.53 1833.17,1168.36 
  "/>
<polyline clip-path="url(#clip7700)" style="stroke:#000000; stroke-width:4; stroke-opacity:1; fill:none" points="
  1864.57,1132.07 1863.08,1129.25 1858.59,1129.03 1855.6,1129.98 1851.11,1133.05 1848.12,1138.93 1846.63,1147.63 1846.63,1155.86 1848.12,1161.97 1851.11,1164.31 
  1855.6,1164.54 1857.1,1164.06 1861.58,1161 1864.57,1156.76 1866.07,1151.34 1866.07,1149.7 1864.57,1145.24 1861.58,1142.89 1857.1,1142.67 1855.6,1143.14 
  1851.11,1146.21 1848.12,1150.45 1846.63,1155.86 
  "/>
<polyline clip-path="url(#clip7700)" style="stroke:#000000; stroke-width:4; stroke-opacity:1; fill:none" points="
  1920.01,1109.55 1915.52,1112.62 1912.53,1118.51 1911.03,1127.21 1911.03,1132.15 1912.53,1139.9 1915.52,1143.89 1920.01,1144.11 1923,1143.16 1927.48,1140.1 
  1930.47,1134.21 1931.97,1125.51 1931.97,1120.57 1930.47,1112.82 1927.48,1108.83 1923,1108.6 1920.01,1109.55 
  "/>
<polyline clip-path="url(#clip7700)" style="stroke:#000000; stroke-width:4; stroke-opacity:1; fill:none" points="
  1943.93,1133.23 1942.44,1135.35 1943.93,1136.53 1945.43,1134.41 1943.93,1133.23 
  "/>
<polyline clip-path="url(#clip7700)" style="stroke:#000000; stroke-width:4; stroke-opacity:1; fill:none" points="
  1963.37,1095.8 1958.89,1098.87 1957.39,1102.63 1957.39,1105.93 1958.89,1108.74 1961.88,1109.44 1967.86,1109.19 1972.34,1109.41 1975.33,1111.76 1976.83,1114.57 
  1976.83,1119.51 1975.33,1123.28 1973.84,1125.4 1969.35,1128.46 1963.37,1130.36 1958.89,1130.14 1957.39,1128.97 1955.89,1126.15 1955.89,1121.21 1957.39,1117.45 
  1960.38,1113.21 1964.87,1110.14 1970.85,1106.6 1973.84,1104 1975.33,1100.24 1975.33,1096.94 1973.84,1094.13 1969.35,1093.9 1963.37,1095.8 
  "/>
<polyline clip-path="url(#clip7700)" style="stroke:#000000; stroke-width:4; stroke-opacity:1; fill:none" points="
  1446.28,1239.03 1460.54,1234.51 1478.8,1235.62 1460.54,1234.51 1515.92,1216.94 1525.05,1217.5 1515.92,1216.94 1571.3,1199.38 1589.56,1200.5 1571.3,1199.38 
  1626.68,1181.82 1635.81,1182.38 1626.68,1181.82 1682.06,1164.26 1700.32,1165.37 1682.06,1164.26 1737.44,1146.69 1746.57,1147.25 1737.44,1146.69 1792.82,1129.13 
  1811.09,1130.24 1792.82,1129.13 1848.2,1111.57 1857.34,1112.12 1848.2,1111.57 1903.59,1094 1921.85,1095.12 1903.59,1094 1958.97,1076.44 1968.1,1077 
  1958.97,1076.44 1973.44,1071.85 
  "/>
<circle clip-path="url(#clip7702)" style="fill:#000000; stroke:none; fill-opacity:1" cx="990.884" cy="758.867" r="10"/>
<circle clip-path="url(#clip7702)" style="fill:#000000; stroke:none; fill-opacity:1" cx="990.884" cy="758.867" r="7"/>
<circle clip-path="url(#clip7702)" style="fill:#000000; stroke:none; fill-opacity:1" cx="1494.94" cy="566.555" r="10"/>
<circle clip-path="url(#clip7702)" style="fill:#000000; stroke:none; fill-opacity:1" cx="1494.94" cy="566.555" r="7"/>
<circle clip-path="url(#clip7702)" style="fill:#000000; stroke:none; fill-opacity:1" cx="1153.62" cy="858.073" r="10"/>
<circle clip-path="url(#clip7702)" style="fill:#000000; stroke:none; fill-opacity:1" cx="1153.62" cy="858.073" r="7"/>
<circle clip-path="url(#clip7702)" style="fill:#000000; stroke:none; fill-opacity:1" cx="1236.53" cy="536.494" r="10"/>
<circle clip-path="url(#clip7702)" style="fill:#000000; stroke:none; fill-opacity:1" cx="1236.53" cy="536.494" r="7"/>
<circle clip-path="url(#clip7702)" style="fill:#000000; stroke:none; fill-opacity:1" cx="1276.38" cy="1029.73" r="10"/>
<circle clip-path="url(#clip7702)" style="fill:#000000; stroke:none; fill-opacity:1" cx="1276.38" cy="1029.73" r="7"/>
<circle clip-path="url(#clip7702)" style="fill:#000000; stroke:none; fill-opacity:1" cx="1240.26" cy="618.701" r="10"/>
<circle clip-path="url(#clip7702)" style="fill:#000000; stroke:none; fill-opacity:1" cx="1240.26" cy="618.701" r="7"/>
<circle clip-path="url(#clip7702)" style="fill:#000000; stroke:none; fill-opacity:1" cx="1035.64" cy="534.567" r="10"/>
<circle clip-path="url(#clip7702)" style="fill:#000000; stroke:none; fill-opacity:1" cx="1035.64" cy="534.567" r="7"/>
<circle clip-path="url(#clip7702)" style="fill:#000000; stroke:none; fill-opacity:1" cx="1427.34" cy="830.686" r="10"/>
<circle clip-path="url(#clip7702)" style="fill:#000000; stroke:none; fill-opacity:1" cx="1427.34" cy="830.686" r="7"/>
<circle clip-path="url(#clip7702)" style="fill:#000000; stroke:none; fill-opacity:1" cx="1366.01" cy="961.511" r="10"/>
<circle clip-path="url(#clip7702)" style="fill:#000000; stroke:none; fill-opacity:1" cx="1366.01" cy="961.511" r="7"/>
<circle clip-path="url(#clip7702)" style="fill:#000000; stroke:none; fill-opacity:1" cx="1213.99" cy="386.654" r="10"/>
<circle clip-path="url(#clip7702)" style="fill:#000000; stroke:none; fill-opacity:1" cx="1213.99" cy="386.654" r="7"/>
</svg>
