<?xml version="1.0" encoding="utf-8"?>
<svg xmlns="http://www.w3.org/2000/svg" xmlns:xlink="http://www.w3.org/1999/xlink" width="600" height="400" viewBox="0 0 2400 1600">
<defs>
  <clipPath id="clip1800">
    <rect x="0" y="0" width="2400" height="1600"/>
  </clipPath>
</defs>
<polygon clip-path="url(#clip1800)" points="
0,1600 2400,1600 2400,0 0,0 
  " fill="#ffffff" fill-rule="evenodd" fill-opacity="1"/>
<defs>
  <clipPath id="clip1801">
    <rect x="480" y="0" width="1681" height="1600"/>
  </clipPath>
</defs>
<polygon clip-path="url(#clip1800)" points="
533.212,1184.17 1973.44,1184.17 1973.44,350.546 533.212,350.546 
  " fill="#ffffff" fill-rule="evenodd" fill-opacity="1"/>
<defs>
  <clipPath id="clip1802">
    <rect x="533" y="350" width="1441" height="835"/>
  </clipPath>
</defs>
<polyline clip-path="url(#clip1800)" style="stroke:#cccccc; stroke-width:2; stroke-opacity:0.1; fill:none" points="
  560.59,1136.4 1087.75,988.67 
  "/>
<polyline clip-path="url(#clip1800)" style="stroke:#cccccc; stroke-width:2; stroke-opacity:0.1; fill:none" points="
  1087.75,988.67 1087.75,352.022 
  "/>
<polyline clip-path="url(#clip1800)" style="stroke:#ededed; stroke-width:2; stroke-opacity:0.1; fill:none" points="
  659.206,1141.72 1186.37,993.989 
  "/>
<polyline clip-path="url(#clip1800)" style="stroke:#ededed; stroke-width:2; stroke-opacity:0.1; fill:none" points="
  1186.37,993.989 1186.37,357.341 
  "/>
<polyline clip-path="url(#clip1800)" style="stroke:#cccccc; stroke-width:2; stroke-opacity:0.1; fill:none" points="
  757.822,1147.04 1284.98,999.308 
  "/>
<polyline clip-path="url(#clip1800)" style="stroke:#cccccc; stroke-width:2; stroke-opacity:0.1; fill:none" points="
  1284.98,999.308 1284.98,362.66 
  "/>
<polyline clip-path="url(#clip1800)" style="stroke:#ededed; stroke-width:2; stroke-opacity:0.1; fill:none" points="
  856.438,1152.36 1383.6,1004.63 
  "/>
<polyline clip-path="url(#clip1800)" style="stroke:#ededed; stroke-width:2; stroke-opacity:0.1; fill:none" points="
  1383.6,1004.63 1383.6,367.978 
  "/>
<polyline clip-path="url(#clip1800)" style="stroke:#cccccc; stroke-width:2; stroke-opacity:0.1; fill:none" points="
  955.054,1157.68 1482.22,1009.95 
  "/>
<polyline clip-path="url(#clip1800)" style="stroke:#cccccc; stroke-width:2; stroke-opacity:0.1; fill:none" points="
  1482.22,1009.95 1482.22,373.297 
  "/>
<polyline clip-path="url(#clip1800)" style="stroke:#ededed; stroke-width:2; stroke-opacity:0.1; fill:none" points="
  1053.67,1163 1580.83,1015.26 
  "/>
<polyline clip-path="url(#clip1800)" style="stroke:#ededed; stroke-width:2; stroke-opacity:0.1; fill:none" points="
  1580.83,1015.26 1580.83,378.616 
  "/>
<polyline clip-path="url(#clip1800)" style="stroke:#cccccc; stroke-width:2; stroke-opacity:0.1; fill:none" points="
  1152.29,1168.32 1679.45,1020.58 
  "/>
<polyline clip-path="url(#clip1800)" style="stroke:#cccccc; stroke-width:2; stroke-opacity:0.1; fill:none" points="
  1679.45,1020.58 1679.45,383.934 
  "/>
<polyline clip-path="url(#clip1800)" style="stroke:#ededed; stroke-width:2; stroke-opacity:0.1; fill:none" points="
  1250.9,1173.64 1778.06,1025.9 
  "/>
<polyline clip-path="url(#clip1800)" style="stroke:#ededed; stroke-width:2; stroke-opacity:0.1; fill:none" points="
  1778.06,1025.9 1778.06,389.253 
  "/>
<polyline clip-path="url(#clip1800)" style="stroke:#cccccc; stroke-width:2; stroke-opacity:0.1; fill:none" points="
  1349.52,1178.95 1876.68,1031.22 
  "/>
<polyline clip-path="url(#clip1800)" style="stroke:#cccccc; stroke-width:2; stroke-opacity:0.1; fill:none" points="
  1876.68,1031.22 1876.68,394.572 
  "/>
<polyline clip-path="url(#clip1800)" style="stroke:#cccccc; stroke-width:2; stroke-opacity:0.1; fill:none" points="
  579.02,1122.09 1492.09,1171.34 
  "/>
<polyline clip-path="url(#clip1800)" style="stroke:#cccccc; stroke-width:2; stroke-opacity:0.1; fill:none" points="
  579.02,1122.09 579.02,485.443 
  "/>
<polyline clip-path="url(#clip1800)" style="stroke:#ededed; stroke-width:2; stroke-opacity:0.1; fill:none" points="
  677.387,1094.52 1590.46,1143.77 
  "/>
<polyline clip-path="url(#clip1800)" style="stroke:#ededed; stroke-width:2; stroke-opacity:0.1; fill:none" points="
  677.387,1094.52 677.387,457.876 
  "/>
<polyline clip-path="url(#clip1800)" style="stroke:#cccccc; stroke-width:2; stroke-opacity:0.1; fill:none" points="
  775.753,1066.96 1688.82,1116.2 
  "/>
<polyline clip-path="url(#clip1800)" style="stroke:#cccccc; stroke-width:2; stroke-opacity:0.1; fill:none" points="
  775.753,1066.96 775.753,430.309 
  "/>
<polyline clip-path="url(#clip1800)" style="stroke:#ededed; stroke-width:2; stroke-opacity:0.1; fill:none" points="
  874.12,1039.39 1787.19,1088.64 
  "/>
<polyline clip-path="url(#clip1800)" style="stroke:#ededed; stroke-width:2; stroke-opacity:0.1; fill:none" points="
  874.12,1039.39 874.12,402.742 
  "/>
<polyline clip-path="url(#clip1800)" style="stroke:#cccccc; stroke-width:2; stroke-opacity:0.1; fill:none" points="
  972.486,1011.82 1885.56,1061.07 
  "/>
<polyline clip-path="url(#clip1800)" style="stroke:#cccccc; stroke-width:2; stroke-opacity:0.1; fill:none" points="
  972.486,1011.82 972.486,375.175 
  "/>
<polyline clip-path="url(#clip1800)" style="stroke:#ededed; stroke-width:2; stroke-opacity:0.1; fill:none" points="
  533.212,1071.26 1060.37,923.529 
  "/>
<polyline clip-path="url(#clip1800)" style="stroke:#ededed; stroke-width:2; stroke-opacity:0.1; fill:none" points="
  1060.37,923.529 1973.44,972.774 
  "/>
<polyline clip-path="url(#clip1800)" style="stroke:#cccccc; stroke-width:2; stroke-opacity:0.1; fill:none" points="
  533.212,1007.6 1060.37,859.864 
  "/>
<polyline clip-path="url(#clip1800)" style="stroke:#cccccc; stroke-width:2; stroke-opacity:0.1; fill:none" points="
  1060.37,859.864 1973.44,909.109 
  "/>
<polyline clip-path="url(#clip1800)" style="stroke:#ededed; stroke-width:2; stroke-opacity:0.1; fill:none" points="
  533.212,943.934 1060.37,796.199 
  "/>
<polyline clip-path="url(#clip1800)" style="stroke:#ededed; stroke-width:2; stroke-opacity:0.1; fill:none" points="
  1060.37,796.199 1973.44,845.444 
  "/>
<polyline clip-path="url(#clip1800)" style="stroke:#cccccc; stroke-width:2; stroke-opacity:0.1; fill:none" points="
  533.212,880.269 1060.37,732.534 
  "/>
<polyline clip-path="url(#clip1800)" style="stroke:#cccccc; stroke-width:2; stroke-opacity:0.1; fill:none" points="
  1060.37,732.534 1973.44,781.779 
  "/>
<polyline clip-path="url(#clip1800)" style="stroke:#ededed; stroke-width:2; stroke-opacity:0.1; fill:none" points="
  533.212,816.604 1060.37,668.87 
  "/>
<polyline clip-path="url(#clip1800)" style="stroke:#ededed; stroke-width:2; stroke-opacity:0.1; fill:none" points="
  1060.37,668.87 1973.44,718.115 
  "/>
<polyline clip-path="url(#clip1800)" style="stroke:#cccccc; stroke-width:2; stroke-opacity:0.1; fill:none" points="
  533.212,752.94 1060.37,605.205 
  "/>
<polyline clip-path="url(#clip1800)" style="stroke:#cccccc; stroke-width:2; stroke-opacity:0.1; fill:none" points="
  1060.37,605.205 1973.44,654.45 
  "/>
<polyline clip-path="url(#clip1800)" style="stroke:#ededed; stroke-width:2; stroke-opacity:0.1; fill:none" points="
  533.212,689.275 1060.37,541.54 
  "/>
<polyline clip-path="url(#clip1800)" style="stroke:#ededed; stroke-width:2; stroke-opacity:0.1; fill:none" points="
  1060.37,541.54 1973.44,590.785 
  "/>
<polyline clip-path="url(#clip1800)" style="stroke:#cccccc; stroke-width:2; stroke-opacity:0.1; fill:none" points="
  533.212,625.61 1060.37,477.875 
  "/>
<polyline clip-path="url(#clip1800)" style="stroke:#cccccc; stroke-width:2; stroke-opacity:0.1; fill:none" points="
  1060.37,477.875 1973.44,527.12 
  "/>
<polyline clip-path="url(#clip1800)" style="stroke:#ededed; stroke-width:2; stroke-opacity:0.1; fill:none" points="
  533.212,561.945 1060.37,414.21 
  "/>
<polyline clip-path="url(#clip1800)" style="stroke:#ededed; stroke-width:2; stroke-opacity:0.1; fill:none" points="
  1060.37,414.21 1973.44,463.455 
  "/>
<polyline clip-path="url(#clip1800)" style="stroke:#cccccc; stroke-width:2; stroke-opacity:0.1; fill:none" points="
  533.212,498.28 1060.37,350.546 
  "/>
<polyline clip-path="url(#clip1800)" style="stroke:#cccccc; stroke-width:2; stroke-opacity:0.1; fill:none" points="
  1060.37,350.546 1973.44,399.79 
  "/>
<polyline clip-path="url(#clip1800)" style="stroke:#000000; stroke-width:4; stroke-opacity:1; fill:none" points="
  447.012,1011.37 442.434,1014.3 439.382,1020.09 437.856,1028.75 437.856,1033.69 439.382,1041.49 442.434,1045.57 447.012,1045.93 450.063,1045.08 454.641,1042.15 
  457.693,1036.36 459.219,1027.7 459.219,1022.76 457.693,1014.96 454.641,1010.88 450.063,1010.52 447.012,1011.37 
  "/>
<polyline clip-path="url(#clip1800)" style="stroke:#000000; stroke-width:4; stroke-opacity:1; fill:none" points="
  471.426,1035.8 469.9,1037.87 471.426,1039.09 472.952,1037.02 471.426,1035.8 
  "/>
<polyline clip-path="url(#clip1800)" style="stroke:#000000; stroke-width:4; stroke-opacity:1; fill:none" points="
  485.159,1008.91 485.159,1007.27 486.685,1003.55 488.21,1001.47 491.262,998.972 497.366,997.262 500.417,998.052 501.943,999.27 503.469,1002.13 503.469,1005.43 
  501.943,1009.14 498.892,1014.94 483.633,1035.67 504.995,1029.68 
  "/>
<polyline clip-path="url(#clip1800)" style="stroke:#000000; stroke-width:4; stroke-opacity:1; fill:none" points="
  447.012,884.043 442.434,886.972 439.382,892.764 437.856,901.421 437.856,906.358 439.382,914.159 442.434,918.241 447.012,918.603 450.063,917.748 454.641,914.82 
  457.693,909.027 459.219,900.371 459.219,895.434 457.693,887.633 454.641,883.551 450.063,883.188 447.012,884.043 
  "/>
<polyline clip-path="url(#clip1800)" style="stroke:#000000; stroke-width:4; stroke-opacity:1; fill:none" points="
  471.426,908.47 469.9,910.543 471.426,911.761 472.952,909.688 471.426,908.47 
  "/>
<polyline clip-path="url(#clip1800)" style="stroke:#000000; stroke-width:4; stroke-opacity:1; fill:none" points="
  498.892,869.504 483.633,896.821 506.521,890.406 
  "/>
<polyline clip-path="url(#clip1800)" style="stroke:#000000; stroke-width:4; stroke-opacity:1; fill:none" points="
  498.892,869.504 498.892,904.064 
  "/>
<polyline clip-path="url(#clip1800)" style="stroke:#000000; stroke-width:4; stroke-opacity:1; fill:none" points="
  447.012,756.714 442.434,759.642 439.382,765.435 437.856,774.091 437.856,779.028 439.382,786.829 442.434,790.911 447.012,791.274 450.063,790.419 454.641,787.49 
  457.693,781.698 459.219,773.041 459.219,768.104 457.693,760.303 454.641,756.221 450.063,755.859 447.012,756.714 
  "/>
<polyline clip-path="url(#clip1800)" style="stroke:#000000; stroke-width:4; stroke-opacity:1; fill:none" points="
  471.426,781.14 469.9,783.214 471.426,784.432 472.952,782.359 471.426,781.14 
  "/>
<polyline clip-path="url(#clip1800)" style="stroke:#000000; stroke-width:4; stroke-opacity:1; fill:none" points="
  503.469,745.829 501.943,742.965 497.366,742.602 494.314,743.458 489.736,746.386 486.685,752.179 485.159,760.835 485.159,769.063 486.685,775.219 489.736,777.655 
  494.314,778.018 495.84,777.59 500.417,774.661 503.469,770.515 504.995,765.15 504.995,763.504 503.469,758.995 500.417,756.559 495.84,756.196 494.314,756.623 
  489.736,759.552 486.685,763.699 485.159,769.063 
  "/>
<polyline clip-path="url(#clip1800)" style="stroke:#000000; stroke-width:4; stroke-opacity:1; fill:none" points="
  447.012,629.384 442.434,632.313 439.382,638.105 437.856,646.761 437.856,651.698 439.382,659.499 442.434,663.581 447.012,663.944 450.063,663.089 454.641,660.16 
  457.693,654.368 459.219,645.712 459.219,640.775 457.693,632.974 454.641,628.892 450.063,628.529 447.012,629.384 
  "/>
<polyline clip-path="url(#clip1800)" style="stroke:#000000; stroke-width:4; stroke-opacity:1; fill:none" points="
  471.426,653.811 469.9,655.884 471.426,657.102 472.952,655.029 471.426,653.811 
  "/>
<polyline clip-path="url(#clip1800)" style="stroke:#000000; stroke-width:4; stroke-opacity:1; fill:none" points="
  491.262,616.983 486.685,619.912 485.159,623.631 485.159,626.922 486.685,629.786 489.736,630.577 495.84,630.512 500.417,630.875 503.469,633.311 504.995,636.175 
  504.995,641.112 503.469,644.831 501.943,646.904 497.366,649.833 491.262,651.543 486.685,651.18 485.159,649.962 483.633,647.098 483.633,642.161 485.159,638.442 
  488.21,634.296 492.788,631.367 498.892,628.011 501.943,625.51 503.469,621.791 503.469,618.499 501.943,615.636 497.366,615.273 491.262,616.983 
  "/>
<polyline clip-path="url(#clip1800)" style="stroke:#000000; stroke-width:4; stroke-opacity:1; fill:none" points="
  442.434,509.92 445.486,507.419 450.063,501.199 450.063,535.759 
  "/>
<polyline clip-path="url(#clip1800)" style="stroke:#000000; stroke-width:4; stroke-opacity:1; fill:none" points="
  471.426,526.481 469.9,528.555 471.426,529.773 472.952,527.699 471.426,526.481 
  "/>
<polyline clip-path="url(#clip1800)" style="stroke:#000000; stroke-width:4; stroke-opacity:1; fill:none" points="
  492.788,489.226 488.21,492.155 485.159,497.947 483.633,506.603 483.633,511.54 485.159,519.341 488.21,523.423 492.788,523.786 495.84,522.931 500.417,520.002 
  503.469,514.21 504.995,505.554 504.995,500.616 503.469,492.815 500.417,488.734 495.84,488.371 492.788,489.226 
  "/>
<polyline clip-path="url(#clip1800)" style="stroke:#000000; stroke-width:4; stroke-opacity:1; fill:none" points="
  533.212,1134.93 533.212,1134.93 514.996,1140.03 533.212,1134.93 533.212,1071.26 524.104,1073.82 533.212,1071.26 533.212,1007.6 514.996,1012.7 533.212,1007.6 
  533.212,943.934 524.104,946.486 533.212,943.934 533.212,880.269 514.996,885.374 533.212,880.269 533.212,816.604 524.104,819.157 533.212,816.604 533.212,752.94 
  514.996,758.044 533.212,752.94 533.212,689.275 524.104,691.827 533.212,689.275 533.212,625.61 514.996,630.715 533.212,625.61 533.212,561.945 524.104,564.497 
  533.212,561.945 533.212,498.28 514.996,503.385 533.212,498.28 
  "/>
<polyline clip-path="url(#clip1800)" style="stroke:#000000; stroke-width:4; stroke-opacity:1; fill:none" points="
  603.32,1156.2 598.397,1157.58 595.115,1162.34 593.474,1170.48 593.474,1175.41 595.115,1183.73 598.397,1188.85 603.32,1190.76 606.602,1190.93 611.525,1189.55 
  614.807,1184.79 616.448,1176.65 616.448,1171.72 614.807,1163.4 611.525,1158.29 606.602,1156.37 603.32,1156.2 
  "/>
<polyline clip-path="url(#clip1800)" style="stroke:#000000; stroke-width:4; stroke-opacity:1; fill:none" points="
  629.575,1188.88 627.934,1190.44 629.575,1192.17 631.216,1190.62 629.575,1188.88 
  "/>
<polyline clip-path="url(#clip1800)" style="stroke:#000000; stroke-width:4; stroke-opacity:1; fill:none" points="
  644.344,1166.64 644.344,1164.99 645.985,1161.79 647.625,1160.23 650.907,1158.76 657.471,1159.12 660.753,1160.94 662.394,1162.67 664.035,1166.05 664.035,1169.35 
  662.394,1172.55 659.112,1177.31 642.703,1192.88 665.676,1194.12 
  "/>
<polyline clip-path="url(#clip1800)" style="stroke:#000000; stroke-width:4; stroke-opacity:1; fill:none" points="
  800.552,1166.83 795.629,1168.21 792.348,1172.97 790.707,1181.11 790.707,1186.05 792.348,1194.37 795.629,1199.48 800.552,1201.39 803.834,1201.57 808.757,1200.19 
  812.039,1195.43 813.68,1187.29 813.68,1182.35 812.039,1174.04 808.757,1168.92 803.834,1167.01 800.552,1166.83 
  "/>
<polyline clip-path="url(#clip1800)" style="stroke:#000000; stroke-width:4; stroke-opacity:1; fill:none" points="
  826.807,1199.52 825.166,1201.08 826.807,1202.81 828.448,1201.25 826.807,1199.52 
  "/>
<polyline clip-path="url(#clip1800)" style="stroke:#000000; stroke-width:4; stroke-opacity:1; fill:none" points="
  856.344,1169.84 839.935,1192 864.549,1193.33 
  "/>
<polyline clip-path="url(#clip1800)" style="stroke:#000000; stroke-width:4; stroke-opacity:1; fill:none" points="
  856.344,1169.84 856.344,1204.4 
  "/>
<polyline clip-path="url(#clip1800)" style="stroke:#000000; stroke-width:4; stroke-opacity:1; fill:none" points="
  997.785,1177.47 992.862,1178.85 989.58,1183.61 987.939,1191.75 987.939,1196.69 989.58,1205.01 992.862,1210.12 997.785,1212.03 1001.07,1212.21 1005.99,1210.83 
  1009.27,1206.07 1010.91,1197.93 1010.91,1192.99 1009.27,1184.67 1005.99,1179.56 1001.07,1177.65 997.785,1177.47 
  "/>
<polyline clip-path="url(#clip1800)" style="stroke:#000000; stroke-width:4; stroke-opacity:1; fill:none" points="
  1024.04,1210.16 1022.4,1211.71 1024.04,1213.45 1025.68,1211.89 1024.04,1210.16 
  "/>
<polyline clip-path="url(#clip1800)" style="stroke:#000000; stroke-width:4; stroke-opacity:1; fill:none" points="
  1058.5,1185.68 1056.86,1182.3 1051.94,1180.39 1048.65,1180.22 1043.73,1181.6 1040.45,1186.36 1038.81,1194.5 1038.81,1202.72 1040.45,1209.4 1043.73,1212.86 
  1048.65,1214.78 1050.29,1214.86 1055.22,1213.48 1058.5,1210.37 1060.14,1205.52 1060.14,1203.87 1058.5,1198.85 1055.22,1195.38 1050.29,1193.47 1048.65,1193.38 
  1043.73,1194.76 1040.45,1197.88 1038.81,1202.72 
  "/>
<polyline clip-path="url(#clip1800)" style="stroke:#000000; stroke-width:4; stroke-opacity:1; fill:none" points="
  1195.02,1188.11 1190.09,1189.49 1186.81,1194.25 1185.17,1202.39 1185.17,1207.33 1186.81,1215.64 1190.09,1220.76 1195.02,1222.67 1198.3,1222.85 1203.22,1221.47 
  1206.5,1216.71 1208.14,1208.57 1208.14,1203.63 1206.5,1195.31 1203.22,1190.2 1198.3,1188.29 1195.02,1188.11 
  "/>
<polyline clip-path="url(#clip1800)" style="stroke:#000000; stroke-width:4; stroke-opacity:1; fill:none" points="
  1221.27,1220.79 1219.63,1222.35 1221.27,1224.09 1222.91,1222.53 1221.27,1220.79 
  "/>
<polyline clip-path="url(#clip1800)" style="stroke:#000000; stroke-width:4; stroke-opacity:1; fill:none" points="
  1242.6,1190.68 1237.68,1192.06 1236.04,1195.26 1236.04,1198.55 1237.68,1201.93 1240.96,1203.75 1247.53,1205.75 1252.45,1207.66 1255.73,1211.13 1257.37,1214.51 
  1257.37,1219.45 1255.73,1222.65 1254.09,1224.21 1249.17,1225.59 1242.6,1225.24 1237.68,1223.32 1236.04,1221.59 1234.4,1218.21 1234.4,1213.27 1236.04,1210.07 
  1239.32,1206.96 1244.25,1205.58 1250.81,1204.28 1254.09,1202.82 1255.73,1199.61 1255.73,1196.32 1254.09,1192.94 1249.17,1191.03 1242.6,1190.68 
  "/>
<polyline clip-path="url(#clip1800)" style="stroke:#000000; stroke-width:4; stroke-opacity:1; fill:none" points="
  533.212,1134.93 560.59,1136.4 551.482,1138.96 560.59,1136.4 659.206,1141.72 640.991,1146.83 659.206,1141.72 757.822,1147.04 748.714,1149.59 757.822,1147.04 
  856.438,1152.36 838.223,1157.47 856.438,1152.36 955.054,1157.68 945.947,1160.23 955.054,1157.68 1053.67,1163 1035.46,1168.1 1053.67,1163 1152.29,1168.32 
  1143.18,1170.87 1152.29,1168.32 1250.9,1173.64 1232.69,1178.74 1250.9,1173.64 1349.52,1178.95 1340.41,1181.51 1349.52,1178.95 1446.28,1184.17 
  "/>
<polyline clip-path="url(#clip1800)" style="stroke:#000000; stroke-width:4; stroke-opacity:1; fill:none" points="
  1605,1158.79 1600.42,1161.72 1597.37,1167.51 1595.84,1176.17 1595.84,1181.11 1597.37,1188.91 1600.42,1192.99 1605,1193.35 1608.05,1192.5 1612.63,1189.57 
  1615.68,1183.78 1617.21,1175.12 1617.21,1170.18 1615.68,1162.38 1612.63,1158.3 1608.05,1157.94 1605,1158.79 
  "/>
<polyline clip-path="url(#clip1800)" style="stroke:#000000; stroke-width:4; stroke-opacity:1; fill:none" points="
  1629.41,1183.22 1627.89,1185.29 1629.41,1186.51 1630.94,1184.44 1629.41,1183.22 
  "/>
<polyline clip-path="url(#clip1800)" style="stroke:#000000; stroke-width:4; stroke-opacity:1; fill:none" points="
  1656.88,1144.25 1641.62,1171.57 1664.51,1165.16 
  "/>
<polyline clip-path="url(#clip1800)" style="stroke:#000000; stroke-width:4; stroke-opacity:1; fill:none" points="
  1656.88,1144.25 1656.88,1178.81 
  "/>
<polyline clip-path="url(#clip1800)" style="stroke:#000000; stroke-width:4; stroke-opacity:1; fill:none" points="
  1801.73,1103.66 1797.15,1106.59 1794.1,1112.38 1792.58,1121.04 1792.58,1125.97 1794.1,1133.77 1797.15,1137.86 1801.73,1138.22 1804.78,1137.36 1809.36,1134.44 
  1812.41,1128.64 1813.94,1119.99 1813.94,1115.05 1812.41,1107.25 1809.36,1103.17 1804.78,1102.8 1801.73,1103.66 
  "/>
<polyline clip-path="url(#clip1800)" style="stroke:#000000; stroke-width:4; stroke-opacity:1; fill:none" points="
  1826.15,1128.09 1824.62,1130.16 1826.15,1131.38 1827.67,1129.3 1826.15,1128.09 
  "/>
<polyline clip-path="url(#clip1800)" style="stroke:#000000; stroke-width:4; stroke-opacity:1; fill:none" points="
  1858.19,1092.77 1856.66,1089.91 1852.09,1089.55 1849.03,1090.4 1844.46,1093.33 1841.4,1099.12 1839.88,1107.78 1839.88,1116.01 1841.4,1122.16 1844.46,1124.6 
  1849.03,1124.96 1850.56,1124.54 1855.14,1121.61 1858.19,1117.46 1859.72,1112.1 1859.72,1110.45 1858.19,1105.94 1855.14,1103.5 1850.56,1103.14 1849.03,1103.57 
  1844.46,1106.5 1841.4,1110.64 1839.88,1116.01 
  "/>
<polyline clip-path="url(#clip1800)" style="stroke:#000000; stroke-width:4; stroke-opacity:1; fill:none" points="
  1446.28,1184.17 1492.09,1171.34 1501.22,1171.83 1492.09,1171.34 1590.46,1143.77 1608.72,1144.75 1590.46,1143.77 1688.82,1116.2 1697.95,1116.69 1688.82,1116.2 
  1787.19,1088.64 1805.45,1089.62 1787.19,1088.64 1885.56,1061.07 1894.69,1061.56 1885.56,1061.07 1973.44,1036.44 
  "/>
<circle clip-path="url(#clip1802)" style="fill:#000000; stroke:none; fill-opacity:1" cx="876.561" cy="961.872" r="10"/>
<circle clip-path="url(#clip1802)" style="fill:#000000; stroke:none; fill-opacity:1" cx="876.561" cy="961.872" r="7"/>
<circle clip-path="url(#clip1802)" style="fill:#000000; stroke:none; fill-opacity:1" cx="1202.2" cy="487.613" r="10"/>
<circle clip-path="url(#clip1802)" style="fill:#000000; stroke:none; fill-opacity:1" cx="1202.2" cy="487.613" r="7"/>
<circle clip-path="url(#clip1802)" style="fill:#000000; stroke:none; fill-opacity:1" cx="1435.36" cy="817.205" r="10"/>
<circle clip-path="url(#clip1802)" style="fill:#000000; stroke:none; fill-opacity:1" cx="1435.36" cy="817.205" r="7"/>
<circle clip-path="url(#clip1802)" style="fill:#000000; stroke:none; fill-opacity:1" cx="1287.31" cy="913.228" r="10"/>
<circle clip-path="url(#clip1802)" style="fill:#000000; stroke:none; fill-opacity:1" cx="1287.31" cy="913.228" r="7"/>
<circle clip-path="url(#clip1802)" style="fill:#000000; stroke:none; fill-opacity:1" cx="1402.11" cy="520.978" r="10"/>
<circle clip-path="url(#clip1802)" style="fill:#000000; stroke:none; fill-opacity:1" cx="1402.11" cy="520.978" r="7"/>
<circle clip-path="url(#clip1802)" style="fill:#000000; stroke:none; fill-opacity:1" cx="1800.05" cy="614.931" r="10"/>
<circle clip-path="url(#clip1802)" style="fill:#000000; stroke:none; fill-opacity:1" cx="1800.05" cy="614.931" r="7"/>
<circle clip-path="url(#clip1802)" style="fill:#000000; stroke:none; fill-opacity:1" cx="801.05" cy="487.776" r="10"/>
<circle clip-path="url(#clip1802)" style="fill:#000000; stroke:none; fill-opacity:1" cx="801.05" cy="487.776" r="7"/>
<circle clip-path="url(#clip1802)" style="fill:#000000; stroke:none; fill-opacity:1" cx="1028.91" cy="541.267" r="10"/>
<circle clip-path="url(#clip1802)" style="fill:#000000; stroke:none; fill-opacity:1" cx="1028.91" cy="541.267" r="7"/>
<circle clip-path="url(#clip1802)" style="fill:#000000; stroke:none; fill-opacity:1" cx="1129.69" cy="643.035" r="10"/>
<circle clip-path="url(#clip1802)" style="fill:#000000; stroke:none; fill-opacity:1" cx="1129.69" cy="643.035" r="7"/>
<circle clip-path="url(#clip1802)" style="fill:#000000; stroke:none; fill-opacity:1" cx="932.731" cy="694.137" r="10"/>
<circle clip-path="url(#clip1802)" style="fill:#000000; stroke:none; fill-opacity:1" cx="932.731" cy="694.137" r="7"/>
</svg>
